%TF.GenerationSoftware,KiCad,Pcbnew,7.0.2*%
%TF.CreationDate,2023-05-12T21:33:33+09:00*%
%TF.ProjectId,EMUZ80_4004,454d555a-3830-45f3-9430-30342e6b6963,rev?*%
%TF.SameCoordinates,Original*%
%TF.FileFunction,Copper,L2,Bot*%
%TF.FilePolarity,Positive*%
%FSLAX46Y46*%
G04 Gerber Fmt 4.6, Leading zero omitted, Abs format (unit mm)*
G04 Created by KiCad (PCBNEW 7.0.2) date 2023-05-12 21:33:33*
%MOMM*%
%LPD*%
G01*
G04 APERTURE LIST*
%ADD10C,0.300000*%
%TA.AperFunction,NonConductor*%
%ADD11C,0.300000*%
%TD*%
%TA.AperFunction,ComponentPad*%
%ADD12R,1.800000X1.800000*%
%TD*%
%TA.AperFunction,ComponentPad*%
%ADD13C,1.800000*%
%TD*%
%TA.AperFunction,ComponentPad*%
%ADD14R,1.600000X1.600000*%
%TD*%
%TA.AperFunction,ComponentPad*%
%ADD15O,1.600000X1.600000*%
%TD*%
%TA.AperFunction,ComponentPad*%
%ADD16C,1.600000*%
%TD*%
%TA.AperFunction,ComponentPad*%
%ADD17R,1.200000X1.200000*%
%TD*%
%TA.AperFunction,ComponentPad*%
%ADD18C,1.200000*%
%TD*%
%TA.AperFunction,ComponentPad*%
%ADD19R,1.450000X1.450000*%
%TD*%
%TA.AperFunction,ComponentPad*%
%ADD20C,1.450000*%
%TD*%
%TA.AperFunction,ComponentPad*%
%ADD21C,2.000000*%
%TD*%
%TA.AperFunction,ComponentPad*%
%ADD22R,2.000000X1.440000*%
%TD*%
%TA.AperFunction,ComponentPad*%
%ADD23O,2.000000X1.440000*%
%TD*%
%TA.AperFunction,ComponentPad*%
%ADD24R,1.700000X1.700000*%
%TD*%
%TA.AperFunction,ComponentPad*%
%ADD25O,1.700000X1.700000*%
%TD*%
%TA.AperFunction,ViaPad*%
%ADD26C,0.800000*%
%TD*%
%TA.AperFunction,Conductor*%
%ADD27C,1.000000*%
%TD*%
%TA.AperFunction,Conductor*%
%ADD28C,1.500000*%
%TD*%
%TA.AperFunction,Conductor*%
%ADD29C,0.250000*%
%TD*%
%TA.AperFunction,Conductor*%
%ADD30C,0.500000*%
%TD*%
G04 APERTURE END LIST*
D10*
D11*
X89812857Y-74746428D02*
X89812857Y-73246428D01*
X89812857Y-73246428D02*
X89455714Y-73246428D01*
X89455714Y-73246428D02*
X89241428Y-73317857D01*
X89241428Y-73317857D02*
X89098571Y-73460714D01*
X89098571Y-73460714D02*
X89027142Y-73603571D01*
X89027142Y-73603571D02*
X88955714Y-73889285D01*
X88955714Y-73889285D02*
X88955714Y-74103571D01*
X88955714Y-74103571D02*
X89027142Y-74389285D01*
X89027142Y-74389285D02*
X89098571Y-74532142D01*
X89098571Y-74532142D02*
X89241428Y-74675000D01*
X89241428Y-74675000D02*
X89455714Y-74746428D01*
X89455714Y-74746428D02*
X89812857Y-74746428D01*
X87741428Y-74675000D02*
X87884285Y-74746428D01*
X87884285Y-74746428D02*
X88170000Y-74746428D01*
X88170000Y-74746428D02*
X88312857Y-74675000D01*
X88312857Y-74675000D02*
X88384285Y-74532142D01*
X88384285Y-74532142D02*
X88384285Y-73960714D01*
X88384285Y-73960714D02*
X88312857Y-73817857D01*
X88312857Y-73817857D02*
X88170000Y-73746428D01*
X88170000Y-73746428D02*
X87884285Y-73746428D01*
X87884285Y-73746428D02*
X87741428Y-73817857D01*
X87741428Y-73817857D02*
X87670000Y-73960714D01*
X87670000Y-73960714D02*
X87670000Y-74103571D01*
X87670000Y-74103571D02*
X88384285Y-74246428D01*
X87098571Y-74675000D02*
X86955714Y-74746428D01*
X86955714Y-74746428D02*
X86670000Y-74746428D01*
X86670000Y-74746428D02*
X86527143Y-74675000D01*
X86527143Y-74675000D02*
X86455714Y-74532142D01*
X86455714Y-74532142D02*
X86455714Y-74460714D01*
X86455714Y-74460714D02*
X86527143Y-74317857D01*
X86527143Y-74317857D02*
X86670000Y-74246428D01*
X86670000Y-74246428D02*
X86884286Y-74246428D01*
X86884286Y-74246428D02*
X87027143Y-74175000D01*
X87027143Y-74175000D02*
X87098571Y-74032142D01*
X87098571Y-74032142D02*
X87098571Y-73960714D01*
X87098571Y-73960714D02*
X87027143Y-73817857D01*
X87027143Y-73817857D02*
X86884286Y-73746428D01*
X86884286Y-73746428D02*
X86670000Y-73746428D01*
X86670000Y-73746428D02*
X86527143Y-73817857D01*
X85812857Y-74746428D02*
X85812857Y-73746428D01*
X85812857Y-73246428D02*
X85884285Y-73317857D01*
X85884285Y-73317857D02*
X85812857Y-73389285D01*
X85812857Y-73389285D02*
X85741428Y-73317857D01*
X85741428Y-73317857D02*
X85812857Y-73246428D01*
X85812857Y-73246428D02*
X85812857Y-73389285D01*
X84455714Y-73746428D02*
X84455714Y-74960714D01*
X84455714Y-74960714D02*
X84527142Y-75103571D01*
X84527142Y-75103571D02*
X84598571Y-75175000D01*
X84598571Y-75175000D02*
X84741428Y-75246428D01*
X84741428Y-75246428D02*
X84955714Y-75246428D01*
X84955714Y-75246428D02*
X85098571Y-75175000D01*
X84455714Y-74675000D02*
X84598571Y-74746428D01*
X84598571Y-74746428D02*
X84884285Y-74746428D01*
X84884285Y-74746428D02*
X85027142Y-74675000D01*
X85027142Y-74675000D02*
X85098571Y-74603571D01*
X85098571Y-74603571D02*
X85169999Y-74460714D01*
X85169999Y-74460714D02*
X85169999Y-74032142D01*
X85169999Y-74032142D02*
X85098571Y-73889285D01*
X85098571Y-73889285D02*
X85027142Y-73817857D01*
X85027142Y-73817857D02*
X84884285Y-73746428D01*
X84884285Y-73746428D02*
X84598571Y-73746428D01*
X84598571Y-73746428D02*
X84455714Y-73817857D01*
X83741428Y-73746428D02*
X83741428Y-74746428D01*
X83741428Y-73889285D02*
X83669999Y-73817857D01*
X83669999Y-73817857D02*
X83527142Y-73746428D01*
X83527142Y-73746428D02*
X83312856Y-73746428D01*
X83312856Y-73746428D02*
X83169999Y-73817857D01*
X83169999Y-73817857D02*
X83098571Y-73960714D01*
X83098571Y-73960714D02*
X83098571Y-74746428D01*
X81812856Y-74675000D02*
X81955713Y-74746428D01*
X81955713Y-74746428D02*
X82241428Y-74746428D01*
X82241428Y-74746428D02*
X82384285Y-74675000D01*
X82384285Y-74675000D02*
X82455713Y-74532142D01*
X82455713Y-74532142D02*
X82455713Y-73960714D01*
X82455713Y-73960714D02*
X82384285Y-73817857D01*
X82384285Y-73817857D02*
X82241428Y-73746428D01*
X82241428Y-73746428D02*
X81955713Y-73746428D01*
X81955713Y-73746428D02*
X81812856Y-73817857D01*
X81812856Y-73817857D02*
X81741428Y-73960714D01*
X81741428Y-73960714D02*
X81741428Y-74103571D01*
X81741428Y-74103571D02*
X82455713Y-74246428D01*
X80455714Y-74746428D02*
X80455714Y-73246428D01*
X80455714Y-74675000D02*
X80598571Y-74746428D01*
X80598571Y-74746428D02*
X80884285Y-74746428D01*
X80884285Y-74746428D02*
X81027142Y-74675000D01*
X81027142Y-74675000D02*
X81098571Y-74603571D01*
X81098571Y-74603571D02*
X81169999Y-74460714D01*
X81169999Y-74460714D02*
X81169999Y-74032142D01*
X81169999Y-74032142D02*
X81098571Y-73889285D01*
X81098571Y-73889285D02*
X81027142Y-73817857D01*
X81027142Y-73817857D02*
X80884285Y-73746428D01*
X80884285Y-73746428D02*
X80598571Y-73746428D01*
X80598571Y-73746428D02*
X80455714Y-73817857D01*
X78598571Y-74746428D02*
X78598571Y-73246428D01*
X78598571Y-73817857D02*
X78455714Y-73746428D01*
X78455714Y-73746428D02*
X78169999Y-73746428D01*
X78169999Y-73746428D02*
X78027142Y-73817857D01*
X78027142Y-73817857D02*
X77955714Y-73889285D01*
X77955714Y-73889285D02*
X77884285Y-74032142D01*
X77884285Y-74032142D02*
X77884285Y-74460714D01*
X77884285Y-74460714D02*
X77955714Y-74603571D01*
X77955714Y-74603571D02*
X78027142Y-74675000D01*
X78027142Y-74675000D02*
X78169999Y-74746428D01*
X78169999Y-74746428D02*
X78455714Y-74746428D01*
X78455714Y-74746428D02*
X78598571Y-74675000D01*
X77384285Y-73746428D02*
X77027142Y-74746428D01*
X76669999Y-73746428D02*
X77027142Y-74746428D01*
X77027142Y-74746428D02*
X77169999Y-75103571D01*
X77169999Y-75103571D02*
X77241428Y-75175000D01*
X77241428Y-75175000D02*
X77384285Y-75246428D01*
X74098571Y-74746428D02*
X74598571Y-74032142D01*
X74955714Y-74746428D02*
X74955714Y-73246428D01*
X74955714Y-73246428D02*
X74384285Y-73246428D01*
X74384285Y-73246428D02*
X74241428Y-73317857D01*
X74241428Y-73317857D02*
X74169999Y-73389285D01*
X74169999Y-73389285D02*
X74098571Y-73532142D01*
X74098571Y-73532142D02*
X74098571Y-73746428D01*
X74098571Y-73746428D02*
X74169999Y-73889285D01*
X74169999Y-73889285D02*
X74241428Y-73960714D01*
X74241428Y-73960714D02*
X74384285Y-74032142D01*
X74384285Y-74032142D02*
X74955714Y-74032142D01*
X73598571Y-73746428D02*
X73241428Y-74746428D01*
X72884285Y-73746428D02*
X73241428Y-74746428D01*
X73241428Y-74746428D02*
X73384285Y-75103571D01*
X73384285Y-75103571D02*
X73455714Y-75175000D01*
X73455714Y-75175000D02*
X73598571Y-75246428D01*
X72098571Y-74746428D02*
X72241428Y-74675000D01*
X72241428Y-74675000D02*
X72312857Y-74603571D01*
X72312857Y-74603571D02*
X72384285Y-74460714D01*
X72384285Y-74460714D02*
X72384285Y-74032142D01*
X72384285Y-74032142D02*
X72312857Y-73889285D01*
X72312857Y-73889285D02*
X72241428Y-73817857D01*
X72241428Y-73817857D02*
X72098571Y-73746428D01*
X72098571Y-73746428D02*
X71884285Y-73746428D01*
X71884285Y-73746428D02*
X71741428Y-73817857D01*
X71741428Y-73817857D02*
X71670000Y-73889285D01*
X71670000Y-73889285D02*
X71598571Y-74032142D01*
X71598571Y-74032142D02*
X71598571Y-74460714D01*
X71598571Y-74460714D02*
X71670000Y-74603571D01*
X71670000Y-74603571D02*
X71741428Y-74675000D01*
X71741428Y-74675000D02*
X71884285Y-74746428D01*
X71884285Y-74746428D02*
X72098571Y-74746428D01*
X69812857Y-74746428D02*
X69812857Y-73246428D01*
X69812857Y-73246428D02*
X69312857Y-74317857D01*
X69312857Y-74317857D02*
X68812857Y-73246428D01*
X68812857Y-73246428D02*
X68812857Y-74746428D01*
X67455714Y-73746428D02*
X67455714Y-74746428D01*
X68098571Y-73746428D02*
X68098571Y-74532142D01*
X68098571Y-74532142D02*
X68027142Y-74675000D01*
X68027142Y-74675000D02*
X67884285Y-74746428D01*
X67884285Y-74746428D02*
X67669999Y-74746428D01*
X67669999Y-74746428D02*
X67527142Y-74675000D01*
X67527142Y-74675000D02*
X67455714Y-74603571D01*
X66741428Y-74746428D02*
X66741428Y-73246428D01*
X66598571Y-74175000D02*
X66169999Y-74746428D01*
X66169999Y-73746428D02*
X66741428Y-74317857D01*
X64884285Y-74746428D02*
X64884285Y-73960714D01*
X64884285Y-73960714D02*
X64955713Y-73817857D01*
X64955713Y-73817857D02*
X65098570Y-73746428D01*
X65098570Y-73746428D02*
X65384285Y-73746428D01*
X65384285Y-73746428D02*
X65527142Y-73817857D01*
X64884285Y-74675000D02*
X65027142Y-74746428D01*
X65027142Y-74746428D02*
X65384285Y-74746428D01*
X65384285Y-74746428D02*
X65527142Y-74675000D01*
X65527142Y-74675000D02*
X65598570Y-74532142D01*
X65598570Y-74532142D02*
X65598570Y-74389285D01*
X65598570Y-74389285D02*
X65527142Y-74246428D01*
X65527142Y-74246428D02*
X65384285Y-74175000D01*
X65384285Y-74175000D02*
X65027142Y-74175000D01*
X65027142Y-74175000D02*
X64884285Y-74103571D01*
X64169999Y-74746428D02*
X64169999Y-73746428D01*
X64169999Y-73246428D02*
X64241427Y-73317857D01*
X64241427Y-73317857D02*
X64169999Y-73389285D01*
X64169999Y-73389285D02*
X64098570Y-73317857D01*
X64098570Y-73317857D02*
X64169999Y-73246428D01*
X64169999Y-73246428D02*
X64169999Y-73389285D01*
X62312856Y-74746428D02*
X62312856Y-73246428D01*
X61669999Y-74746428D02*
X61669999Y-73960714D01*
X61669999Y-73960714D02*
X61741427Y-73817857D01*
X61741427Y-73817857D02*
X61884284Y-73746428D01*
X61884284Y-73746428D02*
X62098570Y-73746428D01*
X62098570Y-73746428D02*
X62241427Y-73817857D01*
X62241427Y-73817857D02*
X62312856Y-73889285D01*
X61169998Y-73746428D02*
X60598570Y-73746428D01*
X60955713Y-73246428D02*
X60955713Y-74532142D01*
X60955713Y-74532142D02*
X60884284Y-74675000D01*
X60884284Y-74675000D02*
X60741427Y-74746428D01*
X60741427Y-74746428D02*
X60598570Y-74746428D01*
X60312855Y-73746428D02*
X59741427Y-73746428D01*
X60098570Y-73246428D02*
X60098570Y-74532142D01*
X60098570Y-74532142D02*
X60027141Y-74675000D01*
X60027141Y-74675000D02*
X59884284Y-74746428D01*
X59884284Y-74746428D02*
X59741427Y-74746428D01*
X59241427Y-73746428D02*
X59241427Y-75246428D01*
X59241427Y-73817857D02*
X59098570Y-73746428D01*
X59098570Y-73746428D02*
X58812855Y-73746428D01*
X58812855Y-73746428D02*
X58669998Y-73817857D01*
X58669998Y-73817857D02*
X58598570Y-73889285D01*
X58598570Y-73889285D02*
X58527141Y-74032142D01*
X58527141Y-74032142D02*
X58527141Y-74460714D01*
X58527141Y-74460714D02*
X58598570Y-74603571D01*
X58598570Y-74603571D02*
X58669998Y-74675000D01*
X58669998Y-74675000D02*
X58812855Y-74746428D01*
X58812855Y-74746428D02*
X59098570Y-74746428D01*
X59098570Y-74746428D02*
X59241427Y-74675000D01*
X57884284Y-74603571D02*
X57812855Y-74675000D01*
X57812855Y-74675000D02*
X57884284Y-74746428D01*
X57884284Y-74746428D02*
X57955712Y-74675000D01*
X57955712Y-74675000D02*
X57884284Y-74603571D01*
X57884284Y-74603571D02*
X57884284Y-74746428D01*
X57884284Y-73817857D02*
X57812855Y-73889285D01*
X57812855Y-73889285D02*
X57884284Y-73960714D01*
X57884284Y-73960714D02*
X57955712Y-73889285D01*
X57955712Y-73889285D02*
X57884284Y-73817857D01*
X57884284Y-73817857D02*
X57884284Y-73960714D01*
X56098569Y-73175000D02*
X57384283Y-75103571D01*
X54527140Y-73175000D02*
X55812854Y-75103571D01*
X53384283Y-73746428D02*
X53384283Y-74960714D01*
X53384283Y-74960714D02*
X53455711Y-75103571D01*
X53455711Y-75103571D02*
X53527140Y-75175000D01*
X53527140Y-75175000D02*
X53669997Y-75246428D01*
X53669997Y-75246428D02*
X53884283Y-75246428D01*
X53884283Y-75246428D02*
X54027140Y-75175000D01*
X53384283Y-74675000D02*
X53527140Y-74746428D01*
X53527140Y-74746428D02*
X53812854Y-74746428D01*
X53812854Y-74746428D02*
X53955711Y-74675000D01*
X53955711Y-74675000D02*
X54027140Y-74603571D01*
X54027140Y-74603571D02*
X54098568Y-74460714D01*
X54098568Y-74460714D02*
X54098568Y-74032142D01*
X54098568Y-74032142D02*
X54027140Y-73889285D01*
X54027140Y-73889285D02*
X53955711Y-73817857D01*
X53955711Y-73817857D02*
X53812854Y-73746428D01*
X53812854Y-73746428D02*
X53527140Y-73746428D01*
X53527140Y-73746428D02*
X53384283Y-73817857D01*
X52669997Y-74746428D02*
X52669997Y-73746428D01*
X52669997Y-73246428D02*
X52741425Y-73317857D01*
X52741425Y-73317857D02*
X52669997Y-73389285D01*
X52669997Y-73389285D02*
X52598568Y-73317857D01*
X52598568Y-73317857D02*
X52669997Y-73246428D01*
X52669997Y-73246428D02*
X52669997Y-73389285D01*
X52169996Y-73746428D02*
X51598568Y-73746428D01*
X51955711Y-73246428D02*
X51955711Y-74532142D01*
X51955711Y-74532142D02*
X51884282Y-74675000D01*
X51884282Y-74675000D02*
X51741425Y-74746428D01*
X51741425Y-74746428D02*
X51598568Y-74746428D01*
X51098568Y-74746428D02*
X51098568Y-73246428D01*
X50455711Y-74746428D02*
X50455711Y-73960714D01*
X50455711Y-73960714D02*
X50527139Y-73817857D01*
X50527139Y-73817857D02*
X50669996Y-73746428D01*
X50669996Y-73746428D02*
X50884282Y-73746428D01*
X50884282Y-73746428D02*
X51027139Y-73817857D01*
X51027139Y-73817857D02*
X51098568Y-73889285D01*
X49098568Y-73746428D02*
X49098568Y-74746428D01*
X49741425Y-73746428D02*
X49741425Y-74532142D01*
X49741425Y-74532142D02*
X49669996Y-74675000D01*
X49669996Y-74675000D02*
X49527139Y-74746428D01*
X49527139Y-74746428D02*
X49312853Y-74746428D01*
X49312853Y-74746428D02*
X49169996Y-74675000D01*
X49169996Y-74675000D02*
X49098568Y-74603571D01*
X48384282Y-74746428D02*
X48384282Y-73246428D01*
X48384282Y-73817857D02*
X48241425Y-73746428D01*
X48241425Y-73746428D02*
X47955710Y-73746428D01*
X47955710Y-73746428D02*
X47812853Y-73817857D01*
X47812853Y-73817857D02*
X47741425Y-73889285D01*
X47741425Y-73889285D02*
X47669996Y-74032142D01*
X47669996Y-74032142D02*
X47669996Y-74460714D01*
X47669996Y-74460714D02*
X47741425Y-74603571D01*
X47741425Y-74603571D02*
X47812853Y-74675000D01*
X47812853Y-74675000D02*
X47955710Y-74746428D01*
X47955710Y-74746428D02*
X48241425Y-74746428D01*
X48241425Y-74746428D02*
X48384282Y-74675000D01*
X47027139Y-74603571D02*
X46955710Y-74675000D01*
X46955710Y-74675000D02*
X47027139Y-74746428D01*
X47027139Y-74746428D02*
X47098567Y-74675000D01*
X47098567Y-74675000D02*
X47027139Y-74603571D01*
X47027139Y-74603571D02*
X47027139Y-74746428D01*
X45669996Y-74675000D02*
X45812853Y-74746428D01*
X45812853Y-74746428D02*
X46098567Y-74746428D01*
X46098567Y-74746428D02*
X46241424Y-74675000D01*
X46241424Y-74675000D02*
X46312853Y-74603571D01*
X46312853Y-74603571D02*
X46384281Y-74460714D01*
X46384281Y-74460714D02*
X46384281Y-74032142D01*
X46384281Y-74032142D02*
X46312853Y-73889285D01*
X46312853Y-73889285D02*
X46241424Y-73817857D01*
X46241424Y-73817857D02*
X46098567Y-73746428D01*
X46098567Y-73746428D02*
X45812853Y-73746428D01*
X45812853Y-73746428D02*
X45669996Y-73817857D01*
X44812853Y-74746428D02*
X44955710Y-74675000D01*
X44955710Y-74675000D02*
X45027139Y-74603571D01*
X45027139Y-74603571D02*
X45098567Y-74460714D01*
X45098567Y-74460714D02*
X45098567Y-74032142D01*
X45098567Y-74032142D02*
X45027139Y-73889285D01*
X45027139Y-73889285D02*
X44955710Y-73817857D01*
X44955710Y-73817857D02*
X44812853Y-73746428D01*
X44812853Y-73746428D02*
X44598567Y-73746428D01*
X44598567Y-73746428D02*
X44455710Y-73817857D01*
X44455710Y-73817857D02*
X44384282Y-73889285D01*
X44384282Y-73889285D02*
X44312853Y-74032142D01*
X44312853Y-74032142D02*
X44312853Y-74460714D01*
X44312853Y-74460714D02*
X44384282Y-74603571D01*
X44384282Y-74603571D02*
X44455710Y-74675000D01*
X44455710Y-74675000D02*
X44598567Y-74746428D01*
X44598567Y-74746428D02*
X44812853Y-74746428D01*
X43669996Y-74746428D02*
X43669996Y-73746428D01*
X43669996Y-73889285D02*
X43598567Y-73817857D01*
X43598567Y-73817857D02*
X43455710Y-73746428D01*
X43455710Y-73746428D02*
X43241424Y-73746428D01*
X43241424Y-73746428D02*
X43098567Y-73817857D01*
X43098567Y-73817857D02*
X43027139Y-73960714D01*
X43027139Y-73960714D02*
X43027139Y-74746428D01*
X43027139Y-73960714D02*
X42955710Y-73817857D01*
X42955710Y-73817857D02*
X42812853Y-73746428D01*
X42812853Y-73746428D02*
X42598567Y-73746428D01*
X42598567Y-73746428D02*
X42455710Y-73817857D01*
X42455710Y-73817857D02*
X42384281Y-73960714D01*
X42384281Y-73960714D02*
X42384281Y-74746428D01*
X40598567Y-73175000D02*
X41884281Y-75103571D01*
X40098567Y-74746428D02*
X40098567Y-73746428D01*
X40098567Y-74032142D02*
X40027138Y-73889285D01*
X40027138Y-73889285D02*
X39955710Y-73817857D01*
X39955710Y-73817857D02*
X39812852Y-73746428D01*
X39812852Y-73746428D02*
X39669995Y-73746428D01*
X39312853Y-73746428D02*
X38955710Y-74746428D01*
X38598567Y-73746428D02*
X38955710Y-74746428D01*
X38955710Y-74746428D02*
X39098567Y-75103571D01*
X39098567Y-75103571D02*
X39169996Y-75175000D01*
X39169996Y-75175000D02*
X39312853Y-75246428D01*
X37812853Y-74746428D02*
X37955710Y-74675000D01*
X37955710Y-74675000D02*
X38027139Y-74603571D01*
X38027139Y-74603571D02*
X38098567Y-74460714D01*
X38098567Y-74460714D02*
X38098567Y-74032142D01*
X38098567Y-74032142D02*
X38027139Y-73889285D01*
X38027139Y-73889285D02*
X37955710Y-73817857D01*
X37955710Y-73817857D02*
X37812853Y-73746428D01*
X37812853Y-73746428D02*
X37598567Y-73746428D01*
X37598567Y-73746428D02*
X37455710Y-73817857D01*
X37455710Y-73817857D02*
X37384282Y-73889285D01*
X37384282Y-73889285D02*
X37312853Y-74032142D01*
X37312853Y-74032142D02*
X37312853Y-74460714D01*
X37312853Y-74460714D02*
X37384282Y-74603571D01*
X37384282Y-74603571D02*
X37455710Y-74675000D01*
X37455710Y-74675000D02*
X37598567Y-74746428D01*
X37598567Y-74746428D02*
X37812853Y-74746428D01*
X36669996Y-74746428D02*
X36669996Y-73746428D01*
X36669996Y-73889285D02*
X36598567Y-73817857D01*
X36598567Y-73817857D02*
X36455710Y-73746428D01*
X36455710Y-73746428D02*
X36241424Y-73746428D01*
X36241424Y-73746428D02*
X36098567Y-73817857D01*
X36098567Y-73817857D02*
X36027139Y-73960714D01*
X36027139Y-73960714D02*
X36027139Y-74746428D01*
X36027139Y-73960714D02*
X35955710Y-73817857D01*
X35955710Y-73817857D02*
X35812853Y-73746428D01*
X35812853Y-73746428D02*
X35598567Y-73746428D01*
X35598567Y-73746428D02*
X35455710Y-73817857D01*
X35455710Y-73817857D02*
X35384281Y-73960714D01*
X35384281Y-73960714D02*
X35384281Y-74746428D01*
X34027139Y-73746428D02*
X34027139Y-74746428D01*
X34669996Y-73746428D02*
X34669996Y-74532142D01*
X34669996Y-74532142D02*
X34598567Y-74675000D01*
X34598567Y-74675000D02*
X34455710Y-74746428D01*
X34455710Y-74746428D02*
X34241424Y-74746428D01*
X34241424Y-74746428D02*
X34098567Y-74675000D01*
X34098567Y-74675000D02*
X34027139Y-74603571D01*
X33312853Y-74746428D02*
X33312853Y-73246428D01*
X33169996Y-74175000D02*
X32741424Y-74746428D01*
X32741424Y-73746428D02*
X33312853Y-74317857D01*
D12*
%TO.P,D3,1,K*%
%TO.N,Net-(D3-K)*%
X78740000Y-43180000D03*
D13*
%TO.P,D3,2,A*%
%TO.N,Net-(D3-A)*%
X81280000Y-43180000D03*
%TD*%
D14*
%TO.P,U7,1,D0*%
%TO.N,Net-(U2-OUTA)*%
X66040000Y-53340000D03*
D15*
%TO.P,U7,2,D1*%
%TO.N,Net-(U2-OUTB)*%
X66040000Y-55880000D03*
%TO.P,U7,3,D2*%
%TO.N,Net-(U2-OUTC)*%
X66040000Y-58420000D03*
%TO.P,U7,4,D3*%
%TO.N,Net-(U2-OUTD)*%
X66040000Y-60960000D03*
%TO.P,U7,5,Vss*%
%TO.N,+15V*%
X66040000Y-63500000D03*
%TO.P,U7,6,CLK1*%
%TO.N,Net-(U3-CLK1)*%
X66040000Y-66040000D03*
%TO.P,U7,7,CLK2*%
%TO.N,Net-(U3-CLK2)*%
X66040000Y-68580000D03*
%TO.P,U7,8,SYNC*%
%TO.N,Net-(U3-SYNC)*%
X66040000Y-71120000D03*
%TO.P,U7,9,RESET*%
%TO.N,/comport/RESET*%
X73660000Y-71120000D03*
%TO.P,U7,10,P0*%
%TO.N,GND*%
X73660000Y-68580000D03*
%TO.P,U7,11,CM*%
%TO.N,Net-(U3-CMRAM0)*%
X73660000Y-66040000D03*
%TO.P,U7,12,Vdd*%
%TO.N,GND*%
X73660000Y-63500000D03*
%TO.P,U7,13,O3*%
%TO.N,Net-(D8-K)*%
X73660000Y-60960000D03*
%TO.P,U7,14,O2*%
%TO.N,Net-(D7-K)*%
X73660000Y-58420000D03*
%TO.P,U7,15,O1*%
%TO.N,Net-(D6-K)*%
X73660000Y-55880000D03*
%TO.P,U7,16,O0*%
%TO.N,Net-(D5-K)*%
X73660000Y-53340000D03*
%TD*%
D14*
%TO.P,U4,1,VCC*%
%TO.N,+15V*%
X53340000Y-53340000D03*
D15*
%TO.P,U4,2,O1*%
%TO.N,Net-(U4-O1)*%
X53340000Y-55880000D03*
%TO.P,U4,3,I1*%
%TO.N,Net-(U2-OUTA)*%
X53340000Y-58420000D03*
%TO.P,U4,4,O2*%
%TO.N,Net-(U4-O2)*%
X53340000Y-60960000D03*
%TO.P,U4,5,I2*%
%TO.N,Net-(U2-OUTB)*%
X53340000Y-63500000D03*
%TO.P,U4,6,O3*%
%TO.N,Net-(U4-O3)*%
X53340000Y-66040000D03*
%TO.P,U4,7,I3*%
%TO.N,Net-(U2-OUTC)*%
X53340000Y-68580000D03*
%TO.P,U4,8,GND*%
%TO.N,GND*%
X53340000Y-71120000D03*
%TO.P,U4,9,I4*%
%TO.N,Net-(U2-OUTD)*%
X60960000Y-71120000D03*
%TO.P,U4,10,O4*%
%TO.N,Net-(U4-O4)*%
X60960000Y-68580000D03*
%TO.P,U4,11,I5*%
%TO.N,Net-(U3-SYNC)*%
X60960000Y-66040000D03*
%TO.P,U4,12,O5*%
%TO.N,Net-(U4-O5)*%
X60960000Y-63500000D03*
%TO.P,U4,13,NC*%
%TO.N,unconnected-(U4-NC-Pad13)*%
X60960000Y-60960000D03*
%TO.P,U4,14,I6*%
%TO.N,Net-(U3-CMROM)*%
X60960000Y-58420000D03*
%TO.P,U4,15,O6*%
%TO.N,Net-(U4-O6)*%
X60960000Y-55880000D03*
%TO.P,U4,16,NC*%
%TO.N,unconnected-(U4-NC-Pad16)*%
X60960000Y-53340000D03*
%TD*%
D16*
%TO.P,C13,1*%
%TO.N,Net-(C13-Pad1)*%
X77470000Y-17780000D03*
%TO.P,C13,2*%
%TO.N,GND*%
X77470000Y-12780000D03*
%TD*%
D14*
%TO.P,U6,1,D0*%
%TO.N,Net-(U2-OUTA)*%
X66040000Y-27940000D03*
D15*
%TO.P,U6,2,D1*%
%TO.N,Net-(U2-OUTB)*%
X66040000Y-30480000D03*
%TO.P,U6,3,D2*%
%TO.N,Net-(U2-OUTC)*%
X66040000Y-33020000D03*
%TO.P,U6,4,D3*%
%TO.N,Net-(U2-OUTD)*%
X66040000Y-35560000D03*
%TO.P,U6,5,Vss*%
%TO.N,+15V*%
X66040000Y-38100000D03*
%TO.P,U6,6,CLK1*%
%TO.N,Net-(U3-CLK1)*%
X66040000Y-40640000D03*
%TO.P,U6,7,CLK2*%
%TO.N,Net-(U3-CLK2)*%
X66040000Y-43180000D03*
%TO.P,U6,8,SYNC*%
%TO.N,Net-(U3-SYNC)*%
X66040000Y-45720000D03*
%TO.P,U6,9,RESET*%
%TO.N,/comport/RESET*%
X73660000Y-45720000D03*
%TO.P,U6,10,P0*%
%TO.N,+15V*%
X73660000Y-43180000D03*
%TO.P,U6,11,CM*%
%TO.N,Net-(U3-CMRAM0)*%
X73660000Y-40640000D03*
%TO.P,U6,12,Vdd*%
%TO.N,GND*%
X73660000Y-38100000D03*
%TO.P,U6,13,O3*%
%TO.N,Net-(D4-K)*%
X73660000Y-35560000D03*
%TO.P,U6,14,O2*%
%TO.N,Net-(D3-K)*%
X73660000Y-33020000D03*
%TO.P,U6,15,O1*%
%TO.N,Net-(D2-K)*%
X73660000Y-30480000D03*
%TO.P,U6,16,O0*%
%TO.N,/comport/TX*%
X73660000Y-27940000D03*
%TD*%
D14*
%TO.P,U5,1,VDD*%
%TO.N,+5V*%
X40640000Y-53340000D03*
D15*
%TO.P,U5,2,O1*%
%TO.N,DIN0*%
X40640000Y-55880000D03*
%TO.P,U5,3,I1*%
%TO.N,Net-(U4-O1)*%
X40640000Y-58420000D03*
%TO.P,U5,4,O2*%
%TO.N,DIN1*%
X40640000Y-60960000D03*
%TO.P,U5,5,I2*%
%TO.N,Net-(U4-O2)*%
X40640000Y-63500000D03*
%TO.P,U5,6,O3*%
%TO.N,DIN2*%
X40640000Y-66040000D03*
%TO.P,U5,7,I3*%
%TO.N,Net-(U4-O3)*%
X40640000Y-68580000D03*
%TO.P,U5,8,VSS*%
%TO.N,GND*%
X40640000Y-71120000D03*
%TO.P,U5,9,I4*%
%TO.N,Net-(U4-O4)*%
X48260000Y-71120000D03*
%TO.P,U5,10,O4*%
%TO.N,DIN3*%
X48260000Y-68580000D03*
%TO.P,U5,11,I5*%
%TO.N,Net-(U4-O5)*%
X48260000Y-66040000D03*
%TO.P,U5,12,O5*%
%TO.N,SYNC*%
X48260000Y-63500000D03*
%TO.P,U5,13,NC*%
%TO.N,unconnected-(U5-NC-Pad13)*%
X48260000Y-60960000D03*
%TO.P,U5,14,I6*%
%TO.N,Net-(U4-O6)*%
X48260000Y-58420000D03*
%TO.P,U5,15,O6*%
%TO.N,CMROM*%
X48260000Y-55880000D03*
%TO.P,U5,16,NC*%
%TO.N,unconnected-(U5-NC-Pad16)*%
X48260000Y-53340000D03*
%TD*%
D16*
%TO.P,R3,1*%
%TO.N,+15V*%
X96520000Y-12700000D03*
D15*
%TO.P,R3,2*%
%TO.N,Net-(C12-Pad1)*%
X88900000Y-12700000D03*
%TD*%
D14*
%TO.P,U12,1,NC*%
%TO.N,unconnected-(U12-NC-Pad1)*%
X53340000Y-7620000D03*
D15*
%TO.P,U12,2,A*%
%TO.N,VBUS*%
X53340000Y-10160000D03*
%TO.P,U12,3,K*%
%TO.N,Net-(U12-K)*%
X53340000Y-12700000D03*
%TO.P,U12,4,NC*%
%TO.N,unconnected-(U12-NC-Pad4)*%
X53340000Y-15240000D03*
%TO.P,U12,5,GND*%
%TO.N,GND*%
X60960000Y-15240000D03*
%TO.P,U12,6,Vo*%
%TO.N,Net-(U12-Vo)*%
X60960000Y-12700000D03*
%TO.P,U12,7,NC*%
%TO.N,unconnected-(U12-NC-Pad7)*%
X60960000Y-10160000D03*
%TO.P,U12,8,VDD*%
%TO.N,+15V*%
X60960000Y-7620000D03*
%TD*%
D16*
%TO.P,R10,1*%
%TO.N,Net-(R10-Pad1)*%
X66040000Y-22860000D03*
D15*
%TO.P,R10,2*%
%TO.N,Net-(C13-Pad1)*%
X73660000Y-22860000D03*
%TD*%
D16*
%TO.P,C8,1*%
%TO.N,+15V*%
X12740000Y-27940000D03*
%TO.P,C8,2*%
%TO.N,GND*%
X17740000Y-27940000D03*
%TD*%
D14*
%TO.P,RN1,1,common*%
%TO.N,+15V*%
X86360000Y-50800000D03*
D15*
%TO.P,RN1,2,R1*%
%TO.N,Net-(D1-A)*%
X86360000Y-53340000D03*
%TO.P,RN1,3,R2*%
%TO.N,Net-(D2-A)*%
X86360000Y-55880000D03*
%TO.P,RN1,4,R3*%
%TO.N,Net-(D3-A)*%
X86360000Y-58420000D03*
%TO.P,RN1,5,R4*%
%TO.N,Net-(D4-A)*%
X86360000Y-60960000D03*
%TO.P,RN1,6,R5*%
%TO.N,Net-(D5-A)*%
X86360000Y-63500000D03*
%TO.P,RN1,7,R6*%
%TO.N,Net-(D6-A)*%
X86360000Y-66040000D03*
%TO.P,RN1,8,R7*%
%TO.N,Net-(D7-A)*%
X86360000Y-68580000D03*
%TO.P,RN1,9,R8*%
%TO.N,Net-(D8-A)*%
X86360000Y-71120000D03*
%TD*%
D16*
%TO.P,R7,1*%
%TO.N,Net-(J2-Pin_4)*%
X60960000Y-20320000D03*
D15*
%TO.P,R7,2*%
%TO.N,Net-(U12-K)*%
X53340000Y-20320000D03*
%TD*%
D17*
%TO.P,C5,1*%
%TO.N,+5V*%
X31520000Y-48260000D03*
D18*
%TO.P,C5,2*%
%TO.N,GND*%
X33020000Y-48260000D03*
%TD*%
D16*
%TO.P,C9,1*%
%TO.N,+15V*%
X67390000Y-49530000D03*
%TO.P,C9,2*%
%TO.N,GND*%
X72390000Y-49530000D03*
%TD*%
D15*
%TO.P,U9,*%
%TO.N,*%
X35560000Y-33020000D03*
D14*
%TO.P,U9,1,GND*%
%TO.N,GND*%
X27940000Y-30480000D03*
D15*
%TO.P,U9,2,VDD*%
%TO.N,+15V*%
X27940000Y-33020000D03*
%TO.P,U9,3,IN*%
%TO.N,CLKIN2*%
X27940000Y-35560000D03*
%TO.P,U9,4,GND*%
%TO.N,GND*%
X35560000Y-35560000D03*
%TO.P,U9,5,OUT*%
%TO.N,Net-(U9-OUT)*%
X35560000Y-30480000D03*
%TD*%
D14*
%TO.P,U2,1,Vcc*%
%TO.N,+5V*%
X53340000Y-27940000D03*
D15*
%TO.P,U2,2,EN_A*%
%TO.N,DOE*%
X53340000Y-30480000D03*
%TO.P,U2,3,A*%
%TO.N,Net-(U2-A)*%
X53340000Y-33020000D03*
%TO.P,U2,4,OUTA*%
%TO.N,Net-(U2-OUTA)*%
X53340000Y-35560000D03*
%TO.P,U2,5,OUTB*%
%TO.N,Net-(U2-OUTB)*%
X53340000Y-38100000D03*
%TO.P,U2,6,B*%
%TO.N,Net-(U2-B)*%
X53340000Y-40640000D03*
%TO.P,U2,7,EN_B*%
%TO.N,DOE*%
X53340000Y-43180000D03*
%TO.P,U2,8,Vss(GND)*%
%TO.N,GND*%
X53340000Y-45720000D03*
%TO.P,U2,9,EN_C*%
%TO.N,DOE*%
X60960000Y-45720000D03*
%TO.P,U2,10,C*%
%TO.N,Net-(U2-C)*%
X60960000Y-43180000D03*
%TO.P,U2,11,OUTC*%
%TO.N,Net-(U2-OUTC)*%
X60960000Y-40640000D03*
%TO.P,U2,12,NC*%
%TO.N,unconnected-(U2-NC-Pad12)*%
X60960000Y-38100000D03*
%TO.P,U2,13,OUTD*%
%TO.N,Net-(U2-OUTD)*%
X60960000Y-35560000D03*
%TO.P,U2,14,D*%
%TO.N,Net-(U2-D)*%
X60960000Y-33020000D03*
%TO.P,U2,15,EN_D*%
%TO.N,DOE*%
X60960000Y-30480000D03*
%TO.P,U2,16,Vdd*%
%TO.N,+15V*%
X60960000Y-27940000D03*
%TD*%
D12*
%TO.P,D5,1,K*%
%TO.N,Net-(D5-K)*%
X78740000Y-55880000D03*
D13*
%TO.P,D5,2,A*%
%TO.N,Net-(D5-A)*%
X81280000Y-55880000D03*
%TD*%
D12*
%TO.P,D4,1,K*%
%TO.N,Net-(D4-K)*%
X78740000Y-48260000D03*
D13*
%TO.P,D4,2,A*%
%TO.N,Net-(D4-A)*%
X81280000Y-48260000D03*
%TD*%
D19*
%TO.P,U10,1,-VIN*%
%TO.N,GND*%
X33020000Y-53340000D03*
D20*
%TO.P,U10,2,+VIN*%
%TO.N,+5V*%
X33020000Y-55880000D03*
%TO.P,U10,3,ON/~{OFF}*%
%TO.N,unconnected-(U10-ON{slash}~{OFF}-Pad3)*%
X33020000Y-58420000D03*
%TO.P,U10,5,NC*%
%TO.N,unconnected-(U10-NC-Pad5)*%
X33020000Y-63500000D03*
%TO.P,U10,6,+VOUT*%
%TO.N,+15V*%
X33020000Y-66040000D03*
%TO.P,U10,7,-VOUT*%
%TO.N,GND*%
X33020000Y-68580000D03*
%TO.P,U10,8,NC*%
%TO.N,unconnected-(U10-NC-Pad8)*%
X33020000Y-71120000D03*
%TD*%
D16*
%TO.P,C6,1*%
%TO.N,+15V*%
X36830000Y-66120000D03*
%TO.P,C6,2*%
%TO.N,GND*%
X36830000Y-71120000D03*
%TD*%
D21*
%TO.P,SW2,1,1*%
%TO.N,GND*%
X77470000Y-21590000D03*
X83970000Y-21590000D03*
%TO.P,SW2,2,2*%
%TO.N,Net-(R10-Pad1)*%
X77470000Y-26090000D03*
X83970000Y-26090000D03*
%TD*%
D12*
%TO.P,D7,1,K*%
%TO.N,Net-(D7-K)*%
X78740000Y-66040000D03*
D13*
%TO.P,D7,2,A*%
%TO.N,Net-(D7-A)*%
X81280000Y-66040000D03*
%TD*%
D16*
%TO.P,C2,1*%
%TO.N,GND*%
X32940000Y-7620000D03*
%TO.P,C2,2*%
%TO.N,+15V*%
X27940000Y-7620000D03*
%TD*%
D21*
%TO.P,SW1,1,1*%
%TO.N,GND*%
X88900000Y-21590000D03*
X95400000Y-21590000D03*
%TO.P,SW1,2,2*%
%TO.N,Net-(R4-Pad1)*%
X88900000Y-26090000D03*
X95400000Y-26090000D03*
%TD*%
D14*
%TO.P,U11,1*%
%TO.N,Net-(U11-Pad1)*%
X40640000Y-5080000D03*
D15*
%TO.P,U11,2*%
X40640000Y-7620000D03*
%TO.P,U11,3*%
%TO.N,/comport/RESET*%
X40640000Y-10160000D03*
%TO.P,U11,4*%
%TO.N,Net-(U11-Pad1)*%
X40640000Y-12700000D03*
%TO.P,U11,5*%
%TO.N,Net-(C12-Pad1)*%
X40640000Y-15240000D03*
%TO.P,U11,6*%
X40640000Y-17780000D03*
%TO.P,U11,7,Vss*%
%TO.N,GND*%
X40640000Y-20320000D03*
%TO.P,U11,8*%
%TO.N,/comport/TX*%
X48260000Y-20320000D03*
%TO.P,U11,9*%
X48260000Y-17780000D03*
%TO.P,U11,10*%
%TO.N,Net-(R8-Pad1)*%
X48260000Y-15240000D03*
%TO.P,U11,11*%
%TO.N,/comport/TEST*%
X48260000Y-12700000D03*
%TO.P,U11,12*%
%TO.N,Net-(U12-Vo)*%
X48260000Y-10160000D03*
%TO.P,U11,13*%
%TO.N,Net-(C13-Pad1)*%
X48260000Y-7620000D03*
%TO.P,U11,14,Vdd*%
%TO.N,+15V*%
X48260000Y-5080000D03*
%TD*%
D14*
%TO.P,U1,1*%
%TO.N,DOUT0*%
X40640000Y-27940000D03*
D15*
%TO.P,U1,2*%
%TO.N,Net-(U2-A)*%
X40640000Y-30480000D03*
%TO.P,U1,3*%
%TO.N,DOUT1*%
X40640000Y-33020000D03*
%TO.P,U1,4*%
%TO.N,Net-(U2-B)*%
X40640000Y-35560000D03*
%TO.P,U1,5*%
%TO.N,DOUT2*%
X40640000Y-38100000D03*
%TO.P,U1,6*%
%TO.N,Net-(U2-C)*%
X40640000Y-40640000D03*
%TO.P,U1,7,GND*%
%TO.N,GND*%
X40640000Y-43180000D03*
%TO.P,U1,8*%
%TO.N,Net-(U2-D)*%
X48260000Y-43180000D03*
%TO.P,U1,9*%
%TO.N,DOUT3*%
X48260000Y-40640000D03*
%TO.P,U1,10*%
%TO.N,unconnected-(U1-Pad10)*%
X48260000Y-38100000D03*
%TO.P,U1,11*%
%TO.N,+5V*%
X48260000Y-35560000D03*
%TO.P,U1,12*%
%TO.N,unconnected-(U1-Pad12)*%
X48260000Y-33020000D03*
%TO.P,U1,13*%
%TO.N,+5V*%
X48260000Y-30480000D03*
%TO.P,U1,14,VCC*%
X48260000Y-27940000D03*
%TD*%
D16*
%TO.P,C4,1*%
%TO.N,GND*%
X27940000Y-25400000D03*
%TO.P,C4,2*%
%TO.N,+15V*%
X32940000Y-25400000D03*
%TD*%
D22*
%TO.P,U3,1,D0*%
%TO.N,Net-(U2-OUTA)*%
X10160000Y-40640000D03*
D23*
%TO.P,U3,2,D1*%
%TO.N,Net-(U2-OUTB)*%
X10160000Y-43180000D03*
%TO.P,U3,3,D2*%
%TO.N,Net-(U2-OUTC)*%
X10160000Y-45720000D03*
%TO.P,U3,4,D3*%
%TO.N,Net-(U2-OUTD)*%
X10160000Y-48260000D03*
%TO.P,U3,5,Vss*%
%TO.N,+15V*%
X10160000Y-50800000D03*
%TO.P,U3,6,CLK1*%
%TO.N,Net-(U3-CLK1)*%
X10160000Y-53340000D03*
%TO.P,U3,7,CLK2*%
%TO.N,Net-(U3-CLK2)*%
X10160000Y-55880000D03*
%TO.P,U3,8,SYNC*%
%TO.N,Net-(U3-SYNC)*%
X10160000Y-58420000D03*
%TO.P,U3,9,RESET*%
%TO.N,/comport/RESET*%
X17780000Y-58420000D03*
%TO.P,U3,10,TEST*%
%TO.N,/comport/TEST*%
X17780000Y-55880000D03*
%TO.P,U3,11,CMROM*%
%TO.N,Net-(U3-CMROM)*%
X17780000Y-53340000D03*
%TO.P,U3,12,Vdd*%
%TO.N,GND*%
X17780000Y-50800000D03*
%TO.P,U3,13,CMRAM3*%
%TO.N,unconnected-(U3-CMRAM3-Pad13)*%
X17780000Y-48260000D03*
%TO.P,U3,14,CMRAM2*%
%TO.N,unconnected-(U3-CMRAM2-Pad14)*%
X17780000Y-45720000D03*
%TO.P,U3,15,CMRAM1*%
%TO.N,unconnected-(U3-CMRAM1-Pad15)*%
X17780000Y-43180000D03*
%TO.P,U3,16,CMRAM0*%
%TO.N,Net-(U3-CMRAM0)*%
X17780000Y-40640000D03*
%TD*%
D16*
%TO.P,R1,1*%
%TO.N,Net-(U8-OUT)*%
X35560000Y-40640000D03*
D15*
%TO.P,R1,2*%
%TO.N,Net-(U3-CLK1)*%
X27940000Y-40640000D03*
%TD*%
D16*
%TO.P,C3,1*%
%TO.N,GND*%
X27940000Y-22860000D03*
%TO.P,C3,2*%
%TO.N,+15V*%
X32940000Y-22860000D03*
%TD*%
%TO.P,C10,1*%
%TO.N,GND*%
X54650000Y-3810000D03*
%TO.P,C10,2*%
%TO.N,+15V*%
X59650000Y-3810000D03*
%TD*%
D14*
%TO.P,U13,1,NC*%
%TO.N,unconnected-(U13-NC-Pad1)*%
X66040000Y-7620000D03*
D15*
%TO.P,U13,2,A*%
%TO.N,+15V*%
X66040000Y-10160000D03*
%TO.P,U13,3,K*%
%TO.N,Net-(U13-K)*%
X66040000Y-12700000D03*
%TO.P,U13,4,NC*%
%TO.N,unconnected-(U13-NC-Pad4)*%
X66040000Y-15240000D03*
%TO.P,U13,5,GND*%
%TO.N,GND2*%
X73660000Y-15240000D03*
%TO.P,U13,6,Vo*%
%TO.N,Net-(J2-Pin_5)*%
X73660000Y-12700000D03*
%TO.P,U13,7,NC*%
%TO.N,unconnected-(U13-NC-Pad7)*%
X73660000Y-10160000D03*
%TO.P,U13,8,VDD*%
%TO.N,VBUS*%
X73660000Y-7620000D03*
%TD*%
D16*
%TO.P,R9,1*%
%TO.N,+15V*%
X66040000Y-20320000D03*
D15*
%TO.P,R9,2*%
%TO.N,Net-(C13-Pad1)*%
X73660000Y-20320000D03*
%TD*%
D12*
%TO.P,D8,1,K*%
%TO.N,Net-(D8-K)*%
X78740000Y-71120000D03*
D13*
%TO.P,D8,2,A*%
%TO.N,Net-(D8-A)*%
X81280000Y-71120000D03*
%TD*%
D16*
%TO.P,R8,1*%
%TO.N,Net-(R8-Pad1)*%
X53340000Y-22860000D03*
D15*
%TO.P,R8,2*%
%TO.N,Net-(U13-K)*%
X60960000Y-22860000D03*
%TD*%
D12*
%TO.P,D2,1,K*%
%TO.N,Net-(D2-K)*%
X78740000Y-38100000D03*
D13*
%TO.P,D2,2,A*%
%TO.N,Net-(D2-A)*%
X81280000Y-38100000D03*
%TD*%
D16*
%TO.P,C7,1*%
%TO.N,+5V*%
X41910000Y-48260000D03*
%TO.P,C7,2*%
%TO.N,GND*%
X46910000Y-48260000D03*
%TD*%
D14*
%TO.P,J1,1,Pin_1*%
%TO.N,CLKIN1*%
X2540000Y-17780000D03*
D15*
%TO.P,J1,2,Pin_2*%
%TO.N,CLKIN2*%
X2540000Y-20320000D03*
%TO.P,J1,3,Pin_3*%
%TO.N,CLKIN1*%
X2540000Y-22860000D03*
%TO.P,J1,4,Pin_4*%
%TO.N,SYNC*%
X2540000Y-25400000D03*
%TO.P,J1,5,Pin_5*%
%TO.N,unconnected-(J1-Pin_5-Pad5)*%
X2540000Y-27940000D03*
%TO.P,J1,6,Pin_6*%
%TO.N,unconnected-(J1-Pin_6-Pad6)*%
X2540000Y-30480000D03*
%TO.P,J1,7,Pin_7*%
%TO.N,unconnected-(J1-Pin_7-Pad7)*%
X2540000Y-33020000D03*
%TO.P,J1,8,Pin_8*%
%TO.N,DOUT3*%
X2540000Y-35560000D03*
%TO.P,J1,9,Pin_9*%
%TO.N,unconnected-(J1-Pin_9-Pad9)*%
X2540000Y-38100000D03*
%TO.P,J1,10,Pin_10*%
%TO.N,unconnected-(J1-Pin_10-Pad10)*%
X2540000Y-40640000D03*
%TO.P,J1,11,Pin_11*%
%TO.N,+5V*%
X2540000Y-43180000D03*
%TO.P,J1,12,Pin_12*%
%TO.N,DOUT2*%
X2540000Y-45720000D03*
%TO.P,J1,13,Pin_13*%
%TO.N,DOE*%
X2540000Y-48260000D03*
%TO.P,J1,14,Pin_14*%
%TO.N,DOUT0*%
X2540000Y-50800000D03*
%TO.P,J1,15,Pin_15*%
%TO.N,DOUT1*%
X2540000Y-53340000D03*
%TO.P,J1,16,Pin_16*%
%TO.N,unconnected-(J1-Pin_16-Pad16)*%
X2540000Y-55880000D03*
%TO.P,J1,17,Pin_17*%
%TO.N,unconnected-(J1-Pin_17-Pad17)*%
X2540000Y-58420000D03*
%TO.P,J1,18,Pin_18*%
%TO.N,unconnected-(J1-Pin_18-Pad18)*%
X2540000Y-60960000D03*
%TO.P,J1,19,Pin_19*%
%TO.N,unconnected-(J1-Pin_19-Pad19)*%
X2540000Y-63500000D03*
%TO.P,J1,20,Pin_20*%
%TO.N,unconnected-(J1-Pin_20-Pad20)*%
X2540000Y-66040000D03*
%TO.P,J1,21,Pin_21*%
%TO.N,unconnected-(J1-Pin_21-Pad21)*%
X22860000Y-66040000D03*
%TO.P,J1,22,Pin_22*%
%TO.N,unconnected-(J1-Pin_22-Pad22)*%
X22860000Y-63500000D03*
%TO.P,J1,23,Pin_23*%
%TO.N,unconnected-(J1-Pin_23-Pad23)*%
X22860000Y-60960000D03*
%TO.P,J1,24,Pin_24*%
%TO.N,unconnected-(J1-Pin_24-Pad24)*%
X22860000Y-58420000D03*
%TO.P,J1,25,Pin_25*%
%TO.N,unconnected-(J1-Pin_25-Pad25)*%
X22860000Y-55880000D03*
%TO.P,J1,26,Pin_26*%
%TO.N,unconnected-(J1-Pin_26-Pad26)*%
X22860000Y-53340000D03*
%TO.P,J1,27,Pin_27*%
%TO.N,unconnected-(J1-Pin_27-Pad27)*%
X22860000Y-50800000D03*
%TO.P,J1,28,Pin_28*%
%TO.N,unconnected-(J1-Pin_28-Pad28)*%
X22860000Y-48260000D03*
%TO.P,J1,29,Pin_29*%
%TO.N,GND*%
X22860000Y-45720000D03*
%TO.P,J1,30,Pin_30*%
%TO.N,DIN0*%
X22860000Y-43180000D03*
%TO.P,J1,31,Pin_31*%
%TO.N,DIN1*%
X22860000Y-40640000D03*
%TO.P,J1,32,Pin_32*%
%TO.N,DIN2*%
X22860000Y-38100000D03*
%TO.P,J1,33,Pin_33*%
%TO.N,DIN3*%
X22860000Y-35560000D03*
%TO.P,J1,34,Pin_34*%
%TO.N,unconnected-(J1-Pin_34-Pad34)*%
X22860000Y-33020000D03*
%TO.P,J1,35,Pin_35*%
%TO.N,unconnected-(J1-Pin_35-Pad35)*%
X22860000Y-30480000D03*
%TO.P,J1,36,Pin_36*%
%TO.N,unconnected-(J1-Pin_36-Pad36)*%
X22860000Y-27940000D03*
%TO.P,J1,37,Pin_37*%
%TO.N,CMROM*%
X22860000Y-25400000D03*
%TO.P,J1,38,Pin_38*%
%TO.N,unconnected-(J1-Pin_38-Pad38)*%
X22860000Y-22860000D03*
%TO.P,J1,39,Pin_39*%
%TO.N,unconnected-(J1-Pin_39-Pad39)*%
X22860000Y-20320000D03*
%TO.P,J1,40,Pin_40*%
%TO.N,CLKIN2*%
X22860000Y-17780000D03*
%TD*%
D16*
%TO.P,R5,1*%
%TO.N,Net-(D9-A)*%
X90170000Y-60960000D03*
D15*
%TO.P,R5,2*%
%TO.N,VBUS*%
X90170000Y-53340000D03*
%TD*%
D12*
%TO.P,D6,1,K*%
%TO.N,Net-(D6-K)*%
X78740000Y-60960000D03*
D13*
%TO.P,D6,2,A*%
%TO.N,Net-(D6-A)*%
X81280000Y-60960000D03*
%TD*%
D12*
%TO.P,D9,1,K*%
%TO.N,GND2*%
X93980000Y-53340000D03*
D13*
%TO.P,D9,2,A*%
%TO.N,Net-(D9-A)*%
X96520000Y-53340000D03*
%TD*%
D12*
%TO.P,D1,1,K*%
%TO.N,/comport/TX*%
X78740000Y-33020000D03*
D13*
%TO.P,D1,2,A*%
%TO.N,Net-(D1-A)*%
X81280000Y-33020000D03*
%TD*%
D16*
%TO.P,R2,1*%
%TO.N,Net-(U9-OUT)*%
X35560000Y-43180000D03*
D15*
%TO.P,R2,2*%
%TO.N,Net-(U3-CLK2)*%
X27940000Y-43180000D03*
%TD*%
%TO.P,U8,*%
%TO.N,*%
X35560000Y-15240000D03*
D14*
%TO.P,U8,1,GND*%
%TO.N,GND*%
X27940000Y-12700000D03*
D15*
%TO.P,U8,2,VDD*%
%TO.N,+15V*%
X27940000Y-15240000D03*
%TO.P,U8,3,IN*%
%TO.N,CLKIN1*%
X27940000Y-17780000D03*
%TO.P,U8,4,GND*%
%TO.N,GND*%
X35560000Y-17780000D03*
%TO.P,U8,5,OUT*%
%TO.N,Net-(U8-OUT)*%
X35560000Y-12700000D03*
%TD*%
D24*
%TO.P,J2,1,Pin_1*%
%TO.N,GND2*%
X88900000Y-33020000D03*
D25*
%TO.P,J2,2,Pin_2*%
%TO.N,unconnected-(J2-Pin_2-Pad2)*%
X88900000Y-35560000D03*
%TO.P,J2,3,Pin_3*%
%TO.N,VBUS*%
X88900000Y-38100000D03*
%TO.P,J2,4,Pin_4*%
%TO.N,Net-(J2-Pin_4)*%
X88900000Y-40640000D03*
%TO.P,J2,5,Pin_5*%
%TO.N,Net-(J2-Pin_5)*%
X88900000Y-43180000D03*
%TO.P,J2,6,Pin_6*%
%TO.N,unconnected-(J2-Pin_6-Pad6)*%
X88900000Y-45720000D03*
%TD*%
D16*
%TO.P,R6,1*%
%TO.N,Net-(C12-Pad1)*%
X88900000Y-17780000D03*
D15*
%TO.P,R6,2*%
%TO.N,GND*%
X96520000Y-17780000D03*
%TD*%
D16*
%TO.P,C11,1*%
%TO.N,GND2*%
X67350000Y-3810000D03*
%TO.P,C11,2*%
%TO.N,VBUS*%
X72350000Y-3810000D03*
%TD*%
D17*
%TO.P,C12,1*%
%TO.N,Net-(C12-Pad1)*%
X82780000Y-15240000D03*
D18*
%TO.P,C12,2*%
%TO.N,GND*%
X81280000Y-15240000D03*
%TD*%
D16*
%TO.P,C1,1*%
%TO.N,GND*%
X32940000Y-5080000D03*
%TO.P,C1,2*%
%TO.N,+15V*%
X27940000Y-5080000D03*
%TD*%
%TO.P,R4,1*%
%TO.N,Net-(R4-Pad1)*%
X96520000Y-15240000D03*
D15*
%TO.P,R4,2*%
%TO.N,Net-(C12-Pad1)*%
X88900000Y-15240000D03*
%TD*%
D26*
%TO.N,GND*%
X42545000Y-32295500D03*
X42545000Y-31115000D03*
X38735000Y-48260000D03*
X40005000Y-48260000D03*
X38735000Y-49530000D03*
X40005000Y-49530000D03*
%TO.N,+15V*%
X77724000Y-50800000D03*
X67564000Y-44196000D03*
%TO.N,Net-(C13-Pad1)*%
X51435000Y-17780000D03*
%TO.N,/comport/TX*%
X58420000Y-28575000D03*
X58420000Y-21590000D03*
%TO.N,SYNC*%
X13716000Y-57404000D03*
X45212000Y-57404000D03*
X13716000Y-25400000D03*
%TO.N,DOUT3*%
X39370000Y-34290000D03*
X39175201Y-26229799D03*
X46355000Y-35560000D03*
%TO.N,DOUT2*%
X38100000Y-26670000D03*
%TO.N,DOE*%
X37592000Y-28956000D03*
X37592000Y-38608000D03*
X58965500Y-30480000D03*
%TO.N,DOUT0*%
X5169500Y-34290000D03*
%TO.N,DOUT1*%
X6350000Y-36830000D03*
X45660500Y-33020000D03*
X45525201Y-37024799D03*
%TO.N,DIN0*%
X24167500Y-45212000D03*
X43180000Y-47244000D03*
X43180000Y-55880000D03*
%TO.N,DIN1*%
X24892000Y-60452000D03*
%TO.N,DIN2*%
X25908000Y-61468000D03*
X39116000Y-61468000D03*
%TO.N,DIN3*%
X38100000Y-52070000D03*
X38735000Y-67310000D03*
X26670000Y-55880000D03*
%TO.N,CMROM*%
X45264500Y-55880000D03*
X27305000Y-38735000D03*
X45264500Y-39370000D03*
%TO.N,Net-(J2-Pin_4)*%
X85725000Y-40640000D03*
X80010000Y-19685000D03*
%TO.N,Net-(U3-CLK1)*%
X68639500Y-46736000D03*
X68639500Y-40640000D03*
X29464499Y-50800000D03*
X29464000Y-46228000D03*
%TO.N,Net-(U3-CLK2)*%
X69850000Y-43180000D03*
X27940000Y-54356000D03*
X27940000Y-45212000D03*
%TO.N,Net-(R8-Pad1)*%
X50710500Y-15240000D03*
%TO.N,Net-(U13-K)*%
X64135000Y-22860000D03*
%TO.N,Net-(U2-C)*%
X46355000Y-40640000D03*
X46355000Y-44450000D03*
%TO.N,Net-(U2-D)*%
X51435000Y-43180000D03*
X51435000Y-34290000D03*
%TO.N,Net-(U2-OUTA)*%
X10160000Y-26670000D03*
X55118000Y-27432000D03*
X55245000Y-54610000D03*
%TO.N,Net-(U2-OUTB)*%
X10160000Y-24130000D03*
X64135000Y-25489500D03*
X55880000Y-31750000D03*
X55245000Y-59690000D03*
X64135000Y-30480000D03*
%TO.N,Net-(U2-OUTC)*%
X64135000Y-24130000D03*
X63410500Y-40640000D03*
X55245000Y-63500000D03*
X63410500Y-33020000D03*
X10160000Y-22225000D03*
%TO.N,Net-(U2-OUTD)*%
X59690000Y-24675500D03*
X10160000Y-21044500D03*
%TO.N,Net-(U3-SYNC)*%
X42545000Y-62230000D03*
X42545000Y-67310000D03*
X64135000Y-71120000D03*
X71120000Y-45720000D03*
X64135000Y-66040000D03*
%TO.N,/comport/RESET*%
X71755000Y-16510000D03*
X76984000Y-45720000D03*
X46355000Y-64770000D03*
X42545000Y-10160000D03*
X42545000Y-16510000D03*
X17780000Y-64770000D03*
%TO.N,/comport/TEST*%
X48841300Y-45503500D03*
X14605000Y-50800000D03*
%TO.N,Net-(U3-CMROM)*%
X19050000Y-59690000D03*
%TO.N,Net-(U3-CMRAM0)*%
X76259500Y-66040000D03*
X76259500Y-40640000D03*
%TO.N,Net-(U4-O3)*%
X50165000Y-69850000D03*
X50165000Y-66040000D03*
%TD*%
D27*
%TO.N,GND*%
X75160000Y-65000000D02*
X73660000Y-63500000D01*
D28*
X20320000Y-46990000D02*
X21590000Y-45720000D01*
D27*
X40005000Y-43815000D02*
X40005000Y-49530000D01*
D29*
X83970000Y-18778528D02*
X83970000Y-21590000D01*
D28*
X54650000Y-3810000D02*
X56642000Y-3810000D01*
D27*
X40005000Y-49530000D02*
X38735000Y-48260000D01*
D28*
X27940000Y-12700000D02*
X30480000Y-12700000D01*
D27*
X75160000Y-62000000D02*
X75160000Y-52300000D01*
D28*
X34695000Y-56609164D02*
X34720000Y-56584164D01*
X50800000Y-48260000D02*
X53340000Y-45720000D01*
X27940000Y-12700000D02*
X27940000Y-12620000D01*
X17740000Y-27940000D02*
X15830000Y-29850000D01*
X59210000Y-13490000D02*
X60960000Y-15240000D01*
X39370000Y-43815000D02*
X39370000Y-49530000D01*
D27*
X40005000Y-49530000D02*
X38735000Y-49530000D01*
X75160000Y-52300000D02*
X72390000Y-49530000D01*
D28*
X18060000Y-50800000D02*
X20320000Y-48540000D01*
X32940000Y-5080000D02*
X35009999Y-3010001D01*
D27*
X75160000Y-46760000D02*
X72390000Y-49530000D01*
D28*
X35009999Y-3010001D02*
X53850001Y-3010001D01*
D27*
X75160000Y-39600000D02*
X75160000Y-46760000D01*
D28*
X34290000Y-68580000D02*
X36830000Y-71120000D01*
D27*
X73660000Y-63500000D02*
X75160000Y-62000000D01*
D29*
X81280000Y-15240000D02*
X81280000Y-16088528D01*
D28*
X53850001Y-3010001D02*
X54650000Y-3810000D01*
D27*
X38735000Y-49530000D02*
X38735000Y-48260000D01*
X73660000Y-68580000D02*
X75160000Y-67080000D01*
D28*
X27940000Y-30480000D02*
X27940000Y-22860000D01*
X27940000Y-22860000D02*
X29690000Y-21110000D01*
X46910000Y-48260000D02*
X50800000Y-48260000D01*
D27*
X75160000Y-36600000D02*
X75160000Y-23900000D01*
D29*
X96520000Y-20470000D02*
X95400000Y-21590000D01*
D28*
X56642000Y-3810000D02*
X59210000Y-6378000D01*
X34695000Y-66905000D02*
X34695000Y-56609164D01*
X17780000Y-50800000D02*
X18060000Y-50800000D01*
X32940000Y-7620000D02*
X32940000Y-5080000D01*
X21590000Y-45720000D02*
X22860000Y-45720000D01*
D27*
X40640000Y-43180000D02*
X40005000Y-43815000D01*
D28*
X15830000Y-29850000D02*
X15830000Y-50120000D01*
D27*
X73660000Y-38100000D02*
X75160000Y-39600000D01*
D28*
X30480000Y-12700000D02*
X35560000Y-17780000D01*
X29690000Y-21110000D02*
X29690000Y-14450000D01*
D29*
X96520000Y-17780000D02*
X96520000Y-20470000D01*
D30*
X42545000Y-31750000D02*
X42545000Y-31204500D01*
D28*
X33020000Y-68580000D02*
X34695000Y-66905000D01*
D27*
X73660000Y-38100000D02*
X75160000Y-36600000D01*
D29*
X81280000Y-16088528D02*
X83970000Y-18778528D01*
D28*
X34720000Y-56584164D02*
X34720000Y-55040000D01*
X59210000Y-6378000D02*
X59210000Y-13490000D01*
X16510000Y-50800000D02*
X17780000Y-50800000D01*
X33070000Y-53290000D02*
X33070000Y-48260000D01*
X33020000Y-68580000D02*
X34290000Y-68580000D01*
D27*
X75160000Y-23900000D02*
X77470000Y-21590000D01*
D28*
X40640000Y-20320000D02*
X42390000Y-22070000D01*
X34720000Y-55040000D02*
X33020000Y-53340000D01*
X40640000Y-43180000D02*
X40005000Y-43180000D01*
X40005000Y-43180000D02*
X39370000Y-43815000D01*
D29*
X81280000Y-15240000D02*
X78820000Y-12780000D01*
X78820000Y-12780000D02*
X77470000Y-12780000D01*
D28*
X27940000Y-12620000D02*
X32940000Y-7620000D01*
X20320000Y-48540000D02*
X20320000Y-46990000D01*
D27*
X75160000Y-67080000D02*
X75160000Y-65000000D01*
D28*
X42390000Y-22070000D02*
X42390000Y-41430000D01*
X33020000Y-53340000D02*
X33070000Y-53290000D01*
D27*
X38735000Y-48260000D02*
X40005000Y-48260000D01*
D28*
X15830000Y-50120000D02*
X16510000Y-50800000D01*
X29690000Y-14450000D02*
X27940000Y-12700000D01*
X42390000Y-41430000D02*
X40640000Y-43180000D01*
%TO.N,+15V*%
X12740000Y-27940000D02*
X12740000Y-48321737D01*
X33360000Y-38440000D02*
X33360000Y-46145837D01*
D27*
X67540000Y-21820000D02*
X67540000Y-36600000D01*
X66040000Y-20320000D02*
X67540000Y-21820000D01*
D28*
X27940000Y-7620000D02*
X26190000Y-9370000D01*
D27*
X67390000Y-49530000D02*
X67540000Y-49680000D01*
D28*
X26190000Y-9370000D02*
X26190000Y-14506000D01*
D29*
X86360000Y-50800000D02*
X77724000Y-50800000D01*
D28*
X26924000Y-15240000D02*
X27940000Y-15240000D01*
D27*
X26808630Y-33020000D02*
X27940000Y-33020000D01*
X27940000Y-15240000D02*
X26440000Y-16740000D01*
D28*
X36750000Y-66040000D02*
X36830000Y-66120000D01*
X10261737Y-50800000D02*
X10160000Y-50800000D01*
X26190000Y-14506000D02*
X26924000Y-15240000D01*
D27*
X67540000Y-11660000D02*
X67540000Y-18820000D01*
D28*
X36750000Y-49535837D02*
X36750000Y-66040000D01*
D27*
X67540000Y-39600000D02*
X67540000Y-49380000D01*
X60960000Y-27940000D02*
X62460000Y-26440000D01*
X66040000Y-38100000D02*
X67540000Y-39600000D01*
X67540000Y-49380000D02*
X67390000Y-49530000D01*
D28*
X27940000Y-5080000D02*
X27940000Y-7620000D01*
D27*
X26440000Y-32651370D02*
X26808630Y-33020000D01*
X62460000Y-26440000D02*
X62460000Y-9120000D01*
D28*
X33360000Y-46145837D02*
X36750000Y-49535837D01*
X59650000Y-3810000D02*
X60960000Y-5120000D01*
X32940000Y-22860000D02*
X32940000Y-29151370D01*
D27*
X67540000Y-49680000D02*
X67540000Y-62000000D01*
X66040000Y-10160000D02*
X67540000Y-11660000D01*
D28*
X12740000Y-48321737D02*
X10261737Y-50800000D01*
X60960000Y-5120000D02*
X60960000Y-7620000D01*
D27*
X67540000Y-36600000D02*
X66040000Y-38100000D01*
X67540000Y-18820000D02*
X66040000Y-20320000D01*
D28*
X29071370Y-33020000D02*
X27940000Y-33020000D01*
X27940000Y-33020000D02*
X33360000Y-38440000D01*
D27*
X62460000Y-9120000D02*
X60960000Y-7620000D01*
D28*
X32940000Y-29151370D02*
X29071370Y-33020000D01*
D27*
X67540000Y-62000000D02*
X66040000Y-63500000D01*
X26440000Y-16740000D02*
X26440000Y-32651370D01*
D28*
%TO.N,+5V*%
X41910000Y-52070000D02*
X40640000Y-53340000D01*
X30988000Y-57912000D02*
X33020000Y-55880000D01*
D29*
X47135000Y-34435000D02*
X48260000Y-35560000D01*
X48260000Y-30480000D02*
X47135000Y-31605000D01*
D28*
X30988000Y-54873304D02*
X30988000Y-48642000D01*
D27*
X46355000Y-27940000D02*
X48260000Y-27940000D01*
D28*
X790000Y-44930000D02*
X790000Y-66764874D01*
X41910000Y-48260000D02*
X41910000Y-52070000D01*
X1815126Y-67790000D02*
X27714000Y-67790000D01*
D27*
X41910000Y-44031321D02*
X44164500Y-41776821D01*
D29*
X48260000Y-27940000D02*
X48260000Y-30480000D01*
D28*
X31994696Y-55880000D02*
X30988000Y-54873304D01*
X27714000Y-67790000D02*
X30988000Y-64516000D01*
X30988000Y-64516000D02*
X30988000Y-57912000D01*
X2540000Y-43180000D02*
X790000Y-44930000D01*
D27*
X41910000Y-48260000D02*
X41910000Y-44031321D01*
X44164500Y-30130500D02*
X46355000Y-27940000D01*
D29*
X47135000Y-31605000D02*
X47135000Y-34435000D01*
D28*
X30988000Y-48642000D02*
X31370000Y-48260000D01*
D27*
X44164500Y-41776821D02*
X44164500Y-30130500D01*
D28*
X33020000Y-55880000D02*
X31994696Y-55880000D01*
X790000Y-66764874D02*
X1815126Y-67790000D01*
D27*
%TO.N,GND2*%
X72160000Y-13740000D02*
X72160000Y-8620000D01*
X74767056Y-2310000D02*
X68850000Y-2310000D01*
X68850000Y-2310000D02*
X67350000Y-3810000D01*
X87200000Y-14742944D02*
X74767056Y-2310000D01*
D29*
X90805000Y-34925000D02*
X90805000Y-50800000D01*
X90805000Y-50800000D02*
X93345000Y-53340000D01*
D27*
X87200000Y-31320000D02*
X87200000Y-14742944D01*
X73660000Y-15240000D02*
X72160000Y-13740000D01*
X72160000Y-8620000D02*
X67350000Y-3810000D01*
D29*
X88900000Y-33020000D02*
X90805000Y-34925000D01*
D27*
X88900000Y-33020000D02*
X87200000Y-31320000D01*
D29*
X93345000Y-53340000D02*
X93980000Y-53340000D01*
D27*
%TO.N,VBUS*%
X86000000Y-15240000D02*
X86000000Y-35200000D01*
D29*
X90170000Y-39370000D02*
X90170000Y-53340000D01*
D27*
X73620000Y-5080000D02*
X73660000Y-5080000D01*
X74570000Y-3810000D02*
X86000000Y-15240000D01*
D29*
X88900000Y-38100000D02*
X90170000Y-39370000D01*
D27*
X72350000Y-3810000D02*
X74570000Y-3810000D01*
X73660000Y-5080000D02*
X73660000Y-7620000D01*
X86000000Y-35200000D02*
X88900000Y-38100000D01*
X72350000Y-3810000D02*
X73620000Y-5080000D01*
D29*
%TO.N,Net-(C13-Pad1)*%
X76200000Y-17780000D02*
X73660000Y-20320000D01*
X73660000Y-22860000D02*
X73660000Y-20320000D01*
X77470000Y-17780000D02*
X76200000Y-17780000D01*
X51435000Y-17780000D02*
X51435000Y-8255000D01*
X51435000Y-8255000D02*
X50800000Y-7620000D01*
X50800000Y-7620000D02*
X48260000Y-7620000D01*
%TO.N,Net-(C12-Pad1)*%
X88900000Y-17780000D02*
X88900000Y-12700000D01*
X40640000Y-17780000D02*
X40640000Y-15240000D01*
%TO.N,/comport/TX*%
X48260000Y-20320000D02*
X48260000Y-17780000D01*
X58420000Y-28575000D02*
X58420000Y-21590000D01*
%TO.N,Net-(D9-A)*%
X96520000Y-57912000D02*
X96520000Y-53340000D01*
X93472000Y-60960000D02*
X96520000Y-57912000D01*
X90170000Y-60960000D02*
X93472000Y-60960000D01*
%TO.N,CLKIN1*%
X3665000Y-21735000D02*
X2540000Y-22860000D01*
X3665000Y-18905000D02*
X3665000Y-21735000D01*
X2540000Y-17780000D02*
X3665000Y-18905000D01*
%TO.N,CLKIN2*%
X25615000Y-33235000D02*
X27940000Y-35560000D01*
X25615000Y-20535000D02*
X25615000Y-33235000D01*
X22860000Y-17780000D02*
X25615000Y-20535000D01*
%TO.N,SYNC*%
X13865000Y-57255000D02*
X13865000Y-25549000D01*
X13716000Y-57404000D02*
X13865000Y-57255000D01*
X13865000Y-25549000D02*
X13716000Y-25400000D01*
X45212000Y-60452000D02*
X45212000Y-57404000D01*
X48260000Y-63500000D02*
X45212000Y-60452000D01*
%TO.N,DOUT3*%
X46355000Y-35560000D02*
X46355000Y-38735000D01*
X39175201Y-34095201D02*
X39370000Y-34290000D01*
X46355000Y-38735000D02*
X48260000Y-40640000D01*
X39175201Y-26229799D02*
X39175201Y-34095201D01*
%TO.N,DOUT2*%
X38608000Y-35052000D02*
X39116000Y-35560000D01*
X39116000Y-35560000D02*
X39116000Y-36576000D01*
X39116000Y-36576000D02*
X40640000Y-38100000D01*
X38100000Y-26670000D02*
X38608000Y-27178000D01*
X38608000Y-27178000D02*
X38608000Y-35052000D01*
%TO.N,DOE*%
X60960000Y-45720000D02*
X58965500Y-43725500D01*
X52215000Y-31605000D02*
X52215000Y-42055000D01*
X52215000Y-42055000D02*
X53340000Y-43180000D01*
X53340000Y-30480000D02*
X52215000Y-31605000D01*
X37592000Y-28956000D02*
X37592000Y-38608000D01*
X58965500Y-43725500D02*
X58965500Y-30480000D01*
%TO.N,DOUT0*%
X2540000Y-50800000D02*
X5169500Y-48170500D01*
X5169500Y-48170500D02*
X5169500Y-34290000D01*
%TO.N,DOUT1*%
X2540000Y-53340000D02*
X6350000Y-49530000D01*
X45660500Y-33020000D02*
X45525201Y-33155299D01*
X45525201Y-33155299D02*
X45525201Y-37024799D01*
X6350000Y-49530000D02*
X6350000Y-36830000D01*
%TO.N,DIN0*%
X43180000Y-47244000D02*
X43180000Y-55880000D01*
X22860000Y-43180000D02*
X24167500Y-44487500D01*
X24167500Y-44487500D02*
X24167500Y-45212000D01*
%TO.N,DIN1*%
X24892000Y-42672000D02*
X24892000Y-60452000D01*
X22860000Y-40640000D02*
X24892000Y-42672000D01*
%TO.N,DIN2*%
X39116000Y-61468000D02*
X39116000Y-64516000D01*
X25908000Y-41148000D02*
X25908000Y-61468000D01*
X39116000Y-64516000D02*
X40640000Y-66040000D01*
X22860000Y-38100000D02*
X25908000Y-41148000D01*
%TO.N,DIN3*%
X38100000Y-66675000D02*
X38735000Y-67310000D01*
X26670000Y-39370000D02*
X26670000Y-55880000D01*
X22860000Y-35560000D02*
X26670000Y-39370000D01*
X38100000Y-52070000D02*
X38100000Y-66675000D01*
%TO.N,CMROM*%
X22860000Y-25400000D02*
X25165000Y-27705000D01*
X25165000Y-36595000D02*
X27305000Y-38735000D01*
X45264500Y-39370000D02*
X45264500Y-55880000D01*
X25165000Y-27705000D02*
X25165000Y-36595000D01*
%TO.N,Net-(J2-Pin_4)*%
X83185000Y-38100000D02*
X83185000Y-29845000D01*
X81280000Y-20955000D02*
X80010000Y-19685000D01*
X81280000Y-27940000D02*
X81280000Y-20955000D01*
X85725000Y-40640000D02*
X83185000Y-38100000D01*
X83185000Y-29845000D02*
X81280000Y-27940000D01*
%TO.N,Net-(J2-Pin_5)*%
X86995000Y-41275000D02*
X88900000Y-43180000D01*
X84455000Y-35560000D02*
X86995000Y-38100000D01*
X73660000Y-12700000D02*
X75565000Y-12700000D01*
X86995000Y-38100000D02*
X86995000Y-41275000D01*
X82645000Y-19780000D02*
X82645000Y-27400000D01*
X82645000Y-27400000D02*
X84455000Y-29210000D01*
X84455000Y-29210000D02*
X84455000Y-35560000D01*
X75565000Y-12700000D02*
X82645000Y-19780000D01*
%TO.N,Net-(U8-OUT)*%
X36685000Y-13825000D02*
X35560000Y-12700000D01*
X35560000Y-40640000D02*
X36685000Y-39515000D01*
X36685000Y-39515000D02*
X36685000Y-13825000D01*
%TO.N,Net-(U3-CLK1)*%
X27940000Y-40640000D02*
X29464499Y-42164499D01*
X29464000Y-45936500D02*
X29464000Y-46228000D01*
X29464000Y-45936500D02*
X29464000Y-45720000D01*
X68639500Y-63440500D02*
X68639500Y-46228000D01*
X68639500Y-46228000D02*
X68639500Y-40640000D01*
X66040000Y-66040000D02*
X68639500Y-63440500D01*
X29464499Y-42164499D02*
X29464499Y-50800000D01*
X68639500Y-46228000D02*
X68639500Y-46736000D01*
%TO.N,Net-(U9-OUT)*%
X34435000Y-42055000D02*
X34435000Y-31605000D01*
X34435000Y-31605000D02*
X35560000Y-30480000D01*
X35560000Y-43180000D02*
X34435000Y-42055000D01*
%TO.N,Net-(U3-CLK2)*%
X69850000Y-64770000D02*
X69850000Y-43180000D01*
X66040000Y-68580000D02*
X69850000Y-64770000D01*
X27940000Y-43180000D02*
X27940000Y-54610000D01*
%TO.N,Net-(R4-Pad1)*%
X94075000Y-17685000D02*
X96520000Y-15240000D01*
X95400000Y-26090000D02*
X94075000Y-24765000D01*
X94075000Y-24765000D02*
X94075000Y-17685000D01*
%TO.N,Net-(U12-K)*%
X53340000Y-20320000D02*
X52215000Y-19195000D01*
X52215000Y-19195000D02*
X52215000Y-13825000D01*
X52215000Y-13825000D02*
X53340000Y-12700000D01*
%TO.N,Net-(R8-Pad1)*%
X51435000Y-22860000D02*
X53340000Y-22860000D01*
X50710500Y-22135500D02*
X51435000Y-22860000D01*
X50710500Y-15240000D02*
X50710500Y-22135500D01*
%TO.N,Net-(U13-K)*%
X64770000Y-12700000D02*
X66040000Y-12700000D01*
X64135000Y-13335000D02*
X64770000Y-12700000D01*
X64135000Y-22860000D02*
X64135000Y-13335000D01*
%TO.N,Net-(U2-C)*%
X46355000Y-40640000D02*
X46355000Y-44450000D01*
%TO.N,Net-(U2-D)*%
X51435000Y-34290000D02*
X51435000Y-43180000D01*
%TO.N,Net-(U2-OUTA)*%
X64915000Y-29065000D02*
X66040000Y-27940000D01*
X10160000Y-40640000D02*
X10160000Y-26670000D01*
X55245000Y-54610000D02*
X55245000Y-56515000D01*
X55118000Y-33782000D02*
X55118000Y-27432000D01*
X66040000Y-53340000D02*
X64915000Y-52215000D01*
X55245000Y-56515000D02*
X53340000Y-58420000D01*
X64915000Y-52215000D02*
X64915000Y-29065000D01*
X53340000Y-35560000D02*
X55118000Y-33782000D01*
%TO.N,Net-(U2-OUTB)*%
X53340000Y-38100000D02*
X55880000Y-35560000D01*
X55245000Y-59690000D02*
X55245000Y-61595000D01*
X64135000Y-53975000D02*
X64135000Y-30480000D01*
X8835000Y-25455000D02*
X10160000Y-24130000D01*
X55880000Y-35560000D02*
X55880000Y-31750000D01*
X66040000Y-55880000D02*
X64135000Y-53975000D01*
X64135000Y-25489500D02*
X64135000Y-30480000D01*
X55245000Y-61595000D02*
X53340000Y-63500000D01*
X8835000Y-41855000D02*
X8835000Y-25455000D01*
X10160000Y-43180000D02*
X8835000Y-41855000D01*
%TO.N,Net-(U2-OUTC)*%
X55245000Y-63500000D02*
X55245000Y-66675000D01*
X63410000Y-24855000D02*
X63410000Y-32930000D01*
X63410500Y-55790500D02*
X63410500Y-33020000D01*
X10160000Y-45720000D02*
X8385000Y-43945000D01*
X63410000Y-32930000D02*
X63500000Y-33020000D01*
X55245000Y-66675000D02*
X53340000Y-68580000D01*
X8385000Y-24000000D02*
X10160000Y-22225000D01*
X8385000Y-43945000D02*
X8385000Y-24000000D01*
X64135000Y-24130000D02*
X63410000Y-24855000D01*
X66040000Y-58420000D02*
X63410500Y-55790500D01*
%TO.N,Net-(U2-OUTD)*%
X62085000Y-57005000D02*
X62085000Y-36685000D01*
X66040000Y-60960000D02*
X62085000Y-57005000D01*
X7935000Y-23269500D02*
X10160000Y-21044500D01*
X10160000Y-48260000D02*
X7935000Y-46035000D01*
X62085000Y-69995000D02*
X62085000Y-56025000D01*
X59690000Y-24675500D02*
X59690000Y-34290000D01*
X60960000Y-71120000D02*
X62085000Y-69995000D01*
X62085000Y-36685000D02*
X60960000Y-35560000D01*
X59690000Y-34290000D02*
X60960000Y-35560000D01*
X7935000Y-46035000D02*
X7935000Y-23269500D01*
%TO.N,Net-(U3-SYNC)*%
X66040000Y-71120000D02*
X71120000Y-66040000D01*
X64135000Y-71120000D02*
X64135000Y-66040000D01*
X71120000Y-66040000D02*
X71120000Y-45720000D01*
X42545000Y-62230000D02*
X42545000Y-67310000D01*
%TO.N,/comport/RESET*%
X72535000Y-72245000D02*
X73660000Y-71120000D01*
X46355000Y-64770000D02*
X46355000Y-70805991D01*
X73660000Y-45720000D02*
X71755000Y-43815000D01*
X71755000Y-43815000D02*
X71755000Y-16510000D01*
X76984500Y-67795500D02*
X76984500Y-45869500D01*
X47794009Y-72245000D02*
X72535000Y-72245000D01*
X46355000Y-70805991D02*
X47794009Y-72245000D01*
X17780000Y-64770000D02*
X17780000Y-58420000D01*
X76984500Y-45869500D02*
X76984000Y-45869000D01*
X42545000Y-16510000D02*
X42545000Y-10160000D01*
X73660000Y-71120000D02*
X76984500Y-67795500D01*
X76984000Y-45869000D02*
X76984000Y-45720000D01*
%TO.N,/comport/TEST*%
X17780000Y-55880000D02*
X14605000Y-52705000D01*
X14605000Y-52705000D02*
X14605000Y-50800000D01*
X49385000Y-44959800D02*
X48841300Y-45503500D01*
X49385000Y-13825000D02*
X49385000Y-44959800D01*
X48260000Y-12700000D02*
X49385000Y-13825000D01*
%TO.N,Net-(U3-CMROM)*%
X19105000Y-59635000D02*
X19050000Y-59690000D01*
X17780000Y-53340000D02*
X19105000Y-54665000D01*
X19105000Y-54665000D02*
X19105000Y-59635000D01*
%TO.N,Net-(U3-CMRAM0)*%
X76259500Y-66040000D02*
X76259500Y-40640000D01*
%TO.N,Net-(U4-O3)*%
X50165000Y-66040000D02*
X50165000Y-69850000D01*
%TO.N,Net-(U11-Pad1)*%
X41765000Y-11575000D02*
X40640000Y-12700000D01*
X40640000Y-5080000D02*
X40640000Y-7620000D01*
X40640000Y-7620000D02*
X41765000Y-8745000D01*
X41765000Y-8745000D02*
X41765000Y-11575000D01*
%TD*%
M02*
