M48
; DRILL file {KiCad 7.0.2} date Fri May 12 21:33:36 2023
; FORMAT={-:-/ absolute / inch / decimal}
; #@! TF.CreationDate,2023-05-12T21:33:36+09:00
; #@! TF.GenerationSoftware,Kicad,Pcbnew,7.0.2
; #@! TF.FileFunction,Plated,1,2,PTH
FMAT,2
INCH
; #@! TA.AperFunction,Plated,PTH,ViaDrill
T1C0.0157
; #@! TA.AperFunction,Plated,PTH,ComponentDrill
T2C0.0236
; #@! TA.AperFunction,Plated,PTH,ComponentDrill
T3C0.0315
; #@! TA.AperFunction,Plated,PTH,ComponentDrill
T4C0.0335
; #@! TA.AperFunction,Plated,PTH,ComponentDrill
T5C0.0354
; #@! TA.AperFunction,Plated,PTH,ComponentDrill
T6C0.0394
; #@! TA.AperFunction,Plated,PTH,ComponentDrill
T7C0.0433
%
G90
G05
T1
X0.2035Y-1.35
X0.25Y-1.45
X0.4Y-0.8285
X0.4Y-0.875
X0.4Y-0.95
X0.4Y-1.05
X0.54Y-1.0
X0.54Y-2.26
X0.575Y-2.0
X0.7Y-2.55
X0.75Y-2.35
X0.9515Y-1.78
X0.98Y-2.38
X1.02Y-2.42
X1.05Y-2.2
X1.075Y-1.525
X1.1Y-1.78
X1.1Y-2.14
X1.16Y-1.82
X1.16Y-2.0
X1.48Y-1.14
X1.48Y-1.52
X1.5Y-1.05
X1.5Y-2.05
X1.525Y-1.9
X1.525Y-1.95
X1.525Y-2.65
X1.54Y-2.42
X1.5423Y-1.0327
X1.55Y-1.35
X1.575Y-1.9
X1.575Y-1.95
X1.675Y-0.4
X1.675Y-0.65
X1.675Y-1.225
X1.675Y-1.2715
X1.675Y-2.45
X1.675Y-2.65
X1.7Y-1.86
X1.7Y-2.2
X1.78Y-2.26
X1.7821Y-1.55
X1.7821Y-2.2
X1.7923Y-1.4577
X1.7977Y-1.3
X1.825Y-1.4
X1.825Y-1.6
X1.825Y-1.75
X1.825Y-2.55
X1.9229Y-1.7915
X1.975Y-2.6
X1.975Y-2.75
X1.9965Y-0.6
X2.025Y-0.7
X2.025Y-1.35
X2.025Y-1.7
X2.17Y-1.08
X2.175Y-2.15
X2.175Y-2.35
X2.175Y-2.5
X2.2Y-1.25
X2.3Y-0.85
X2.3Y-1.125
X2.3215Y-1.2
X2.35Y-0.9715
X2.4965Y-1.3
X2.4965Y-1.6
X2.525Y-0.9
X2.525Y-0.95
X2.525Y-1.0035
X2.525Y-1.2
X2.525Y-2.6
X2.525Y-2.8
X2.66Y-1.74
X2.7023Y-1.6
X2.7023Y-1.84
X2.75Y-1.7
X2.8Y-1.8
X2.825Y-0.65
X3.0023Y-1.6
X3.0023Y-2.6
X3.0309Y-1.8
X3.06Y-2.0
X3.15Y-0.775
X3.375Y-1.6
T2
X1.2409Y-1.9
X1.3Y-1.9
X3.2Y-0.6
X3.2591Y-0.6
T3
X0.1Y-0.7
X0.1Y-0.8
X0.1Y-0.9
X0.1Y-1.0
X0.1Y-1.1
X0.1Y-1.2
X0.1Y-1.3
X0.1Y-1.4
X0.1Y-1.5
X0.1Y-1.6
X0.1Y-1.7
X0.1Y-1.8
X0.1Y-1.9
X0.1Y-2.0
X0.1Y-2.1
X0.1Y-2.2
X0.1Y-2.3
X0.1Y-2.4
X0.1Y-2.5
X0.1Y-2.6
X0.5016Y-1.1
X0.6984Y-1.1
X0.9Y-0.7
X0.9Y-0.8
X0.9Y-0.9
X0.9Y-1.0
X0.9Y-1.1
X0.9Y-1.2
X0.9Y-1.3
X0.9Y-1.4
X0.9Y-1.5
X0.9Y-1.6
X0.9Y-1.7
X0.9Y-1.8
X0.9Y-1.9
X0.9Y-2.0
X0.9Y-2.1
X0.9Y-2.2
X0.9Y-2.3
X0.9Y-2.4
X0.9Y-2.5
X0.9Y-2.6
X1.1Y-0.2
X1.1Y-0.3
X1.1Y-0.5
X1.1Y-0.6
X1.1Y-0.7
X1.1Y-0.9
X1.1Y-1.0
X1.1Y-1.2
X1.1Y-1.3
X1.1Y-1.4
X1.1Y-1.6
X1.1Y-1.7
X1.2969Y-0.2
X1.2969Y-0.3
X1.2969Y-0.9
X1.2969Y-1.0
X1.4Y-0.5
X1.4Y-0.6
X1.4Y-0.7
X1.4Y-1.2
X1.4Y-1.3
X1.4Y-1.4
X1.4Y-1.6
X1.4Y-1.7
X1.45Y-2.6031
X1.45Y-2.8
X1.6Y-0.2
X1.6Y-0.3
X1.6Y-0.4
X1.6Y-0.5
X1.6Y-0.6
X1.6Y-0.7
X1.6Y-0.8
X1.6Y-1.1
X1.6Y-1.2
X1.6Y-1.3
X1.6Y-1.4
X1.6Y-1.5
X1.6Y-1.6
X1.6Y-1.7
X1.6Y-2.1
X1.6Y-2.2
X1.6Y-2.3
X1.6Y-2.4
X1.6Y-2.5
X1.6Y-2.6
X1.6Y-2.7
X1.6Y-2.8
X1.65Y-1.9
X1.8469Y-1.9
X1.9Y-0.2
X1.9Y-0.3
X1.9Y-0.4
X1.9Y-0.5
X1.9Y-0.6
X1.9Y-0.7
X1.9Y-0.8
X1.9Y-1.1
X1.9Y-1.2
X1.9Y-1.3
X1.9Y-1.4
X1.9Y-1.5
X1.9Y-1.6
X1.9Y-1.7
X1.9Y-2.1
X1.9Y-2.2
X1.9Y-2.3
X1.9Y-2.4
X1.9Y-2.5
X1.9Y-2.6
X1.9Y-2.7
X1.9Y-2.8
X2.1Y-0.3
X2.1Y-0.4
X2.1Y-0.5
X2.1Y-0.6
X2.1Y-0.8
X2.1Y-0.9
X2.1Y-1.1
X2.1Y-1.2
X2.1Y-1.3
X2.1Y-1.4
X2.1Y-1.5
X2.1Y-1.6
X2.1Y-1.7
X2.1Y-1.8
X2.1Y-2.1
X2.1Y-2.2
X2.1Y-2.3
X2.1Y-2.4
X2.1Y-2.5
X2.1Y-2.6
X2.1Y-2.7
X2.1Y-2.8
X2.1516Y-0.15
X2.3484Y-0.15
X2.4Y-0.3
X2.4Y-0.4
X2.4Y-0.5
X2.4Y-0.6
X2.4Y-0.8
X2.4Y-0.9
X2.4Y-1.1
X2.4Y-1.2
X2.4Y-1.3
X2.4Y-1.4
X2.4Y-1.5
X2.4Y-1.6
X2.4Y-1.7
X2.4Y-1.8
X2.4Y-2.1
X2.4Y-2.2
X2.4Y-2.3
X2.4Y-2.4
X2.4Y-2.5
X2.4Y-2.6
X2.4Y-2.7
X2.4Y-2.8
X2.6Y-0.3
X2.6Y-0.4
X2.6Y-0.5
X2.6Y-0.6
X2.6Y-0.8
X2.6Y-0.9
X2.6Y-1.1
X2.6Y-1.2
X2.6Y-1.3
X2.6Y-1.4
X2.6Y-1.5
X2.6Y-1.6
X2.6Y-1.7
X2.6Y-1.8
X2.6Y-2.1
X2.6Y-2.2
X2.6Y-2.3
X2.6Y-2.4
X2.6Y-2.5
X2.6Y-2.6
X2.6Y-2.7
X2.6Y-2.8
X2.6516Y-0.15
X2.6531Y-1.95
X2.8484Y-0.15
X2.85Y-1.95
X2.9Y-0.3
X2.9Y-0.4
X2.9Y-0.5
X2.9Y-0.6
X2.9Y-0.8
X2.9Y-0.9
X2.9Y-1.1
X2.9Y-1.2
X2.9Y-1.3
X2.9Y-1.4
X2.9Y-1.5
X2.9Y-1.6
X2.9Y-1.7
X2.9Y-1.8
X2.9Y-2.1
X2.9Y-2.2
X2.9Y-2.3
X2.9Y-2.4
X2.9Y-2.5
X2.9Y-2.6
X2.9Y-2.7
X2.9Y-2.8
X3.05Y-0.5031
X3.05Y-0.7
X3.4Y-2.0
X3.4Y-2.1
X3.4Y-2.2
X3.4Y-2.3
X3.4Y-2.4
X3.4Y-2.5
X3.4Y-2.6
X3.4Y-2.7
X3.4Y-2.8
X3.5Y-0.5
X3.5Y-0.6
X3.5Y-0.7
X3.55Y-2.1
X3.55Y-2.4
X3.8Y-0.5
X3.8Y-0.6
X3.8Y-0.7
T4
X1.3Y-2.1
X1.3Y-2.2
X1.3Y-2.3
X1.3Y-2.5
X1.3Y-2.6
X1.3Y-2.7
X1.3Y-2.8
T5
X3.1Y-1.3
X3.1Y-1.5
X3.1Y-1.7
X3.1Y-1.9
X3.1Y-2.2
X3.1Y-2.4
X3.1Y-2.6
X3.1Y-2.8
X3.2Y-1.3
X3.2Y-1.5
X3.2Y-1.7
X3.2Y-1.9
X3.2Y-2.2
X3.2Y-2.4
X3.2Y-2.6
X3.2Y-2.8
X3.7Y-2.1
X3.8Y-2.1
T6
X0.4Y-1.6
X0.4Y-1.7
X0.4Y-1.8
X0.4Y-1.9
X0.4Y-2.0
X0.4Y-2.1
X0.4Y-2.2
X0.4Y-2.3
X0.7Y-1.6
X0.7Y-1.7
X0.7Y-1.8
X0.7Y-1.9
X0.7Y-2.0
X0.7Y-2.1
X0.7Y-2.2
X0.7Y-2.3
X3.5Y-1.3
X3.5Y-1.4
X3.5Y-1.5
X3.5Y-1.6
X3.5Y-1.7
X3.5Y-1.8
T7
X3.05Y-0.85
X3.05Y-1.0272
X3.3059Y-0.85
X3.3059Y-1.0272
X3.5Y-0.85
X3.5Y-1.0272
X3.7559Y-0.85
X3.7559Y-1.0272
T0
M30
