%TF.GenerationSoftware,KiCad,Pcbnew,7.0.2*%
%TF.CreationDate,2023-05-12T21:33:33+09:00*%
%TF.ProjectId,EMUZ80_4004,454d555a-3830-45f3-9430-30342e6b6963,rev?*%
%TF.SameCoordinates,Original*%
%TF.FileFunction,Soldermask,Bot*%
%TF.FilePolarity,Negative*%
%FSLAX46Y46*%
G04 Gerber Fmt 4.6, Leading zero omitted, Abs format (unit mm)*
G04 Created by KiCad (PCBNEW 7.0.2) date 2023-05-12 21:33:33*
%MOMM*%
%LPD*%
G01*
G04 APERTURE LIST*
%ADD10R,1.800000X1.800000*%
%ADD11C,1.800000*%
%ADD12C,3.000000*%
%ADD13R,1.600000X1.600000*%
%ADD14O,1.600000X1.600000*%
%ADD15C,1.600000*%
%ADD16R,1.200000X1.200000*%
%ADD17C,1.200000*%
%ADD18R,1.450000X1.450000*%
%ADD19C,1.450000*%
%ADD20C,2.000000*%
%ADD21R,2.000000X1.440000*%
%ADD22O,2.000000X1.440000*%
%ADD23R,1.700000X1.700000*%
%ADD24O,1.700000X1.700000*%
G04 APERTURE END LIST*
D10*
%TO.C,D3*%
X78740000Y-43180000D03*
D11*
X81280000Y-43180000D03*
%TD*%
D12*
%TO.C,REF\u002A\u002A*%
X93980000Y-71120000D03*
%TD*%
D13*
%TO.C,U7*%
X66040000Y-53340000D03*
D14*
X66040000Y-55880000D03*
X66040000Y-58420000D03*
X66040000Y-60960000D03*
X66040000Y-63500000D03*
X66040000Y-66040000D03*
X66040000Y-68580000D03*
X66040000Y-71120000D03*
X73660000Y-71120000D03*
X73660000Y-68580000D03*
X73660000Y-66040000D03*
X73660000Y-63500000D03*
X73660000Y-60960000D03*
X73660000Y-58420000D03*
X73660000Y-55880000D03*
X73660000Y-53340000D03*
%TD*%
D13*
%TO.C,U4*%
X53340000Y-53340000D03*
D14*
X53340000Y-55880000D03*
X53340000Y-58420000D03*
X53340000Y-60960000D03*
X53340000Y-63500000D03*
X53340000Y-66040000D03*
X53340000Y-68580000D03*
X53340000Y-71120000D03*
X60960000Y-71120000D03*
X60960000Y-68580000D03*
X60960000Y-66040000D03*
X60960000Y-63500000D03*
X60960000Y-60960000D03*
X60960000Y-58420000D03*
X60960000Y-55880000D03*
X60960000Y-53340000D03*
%TD*%
D15*
%TO.C,C13*%
X77470000Y-17780000D03*
X77470000Y-12780000D03*
%TD*%
D13*
%TO.C,U6*%
X66040000Y-27940000D03*
D14*
X66040000Y-30480000D03*
X66040000Y-33020000D03*
X66040000Y-35560000D03*
X66040000Y-38100000D03*
X66040000Y-40640000D03*
X66040000Y-43180000D03*
X66040000Y-45720000D03*
X73660000Y-45720000D03*
X73660000Y-43180000D03*
X73660000Y-40640000D03*
X73660000Y-38100000D03*
X73660000Y-35560000D03*
X73660000Y-33020000D03*
X73660000Y-30480000D03*
X73660000Y-27940000D03*
%TD*%
D13*
%TO.C,U5*%
X40640000Y-53340000D03*
D14*
X40640000Y-55880000D03*
X40640000Y-58420000D03*
X40640000Y-60960000D03*
X40640000Y-63500000D03*
X40640000Y-66040000D03*
X40640000Y-68580000D03*
X40640000Y-71120000D03*
X48260000Y-71120000D03*
X48260000Y-68580000D03*
X48260000Y-66040000D03*
X48260000Y-63500000D03*
X48260000Y-60960000D03*
X48260000Y-58420000D03*
X48260000Y-55880000D03*
X48260000Y-53340000D03*
%TD*%
D15*
%TO.C,R3*%
X96520000Y-12700000D03*
D14*
X88900000Y-12700000D03*
%TD*%
D13*
%TO.C,U12*%
X53340000Y-7620000D03*
D14*
X53340000Y-10160000D03*
X53340000Y-12700000D03*
X53340000Y-15240000D03*
X60960000Y-15240000D03*
X60960000Y-12700000D03*
X60960000Y-10160000D03*
X60960000Y-7620000D03*
%TD*%
D15*
%TO.C,R10*%
X66040000Y-22860000D03*
D14*
X73660000Y-22860000D03*
%TD*%
D12*
%TO.C,REF\u002A\u002A*%
X93980000Y-5080000D03*
%TD*%
D15*
%TO.C,C8*%
X12740000Y-27940000D03*
X17740000Y-27940000D03*
%TD*%
D13*
%TO.C,RN1*%
X86360000Y-50800000D03*
D14*
X86360000Y-53340000D03*
X86360000Y-55880000D03*
X86360000Y-58420000D03*
X86360000Y-60960000D03*
X86360000Y-63500000D03*
X86360000Y-66040000D03*
X86360000Y-68580000D03*
X86360000Y-71120000D03*
%TD*%
D15*
%TO.C,R7*%
X60960000Y-20320000D03*
D14*
X53340000Y-20320000D03*
%TD*%
D16*
%TO.C,C5*%
X31520000Y-48260000D03*
D17*
X33020000Y-48260000D03*
%TD*%
D15*
%TO.C,C9*%
X67390000Y-49530000D03*
X72390000Y-49530000D03*
%TD*%
D14*
%TO.C,U9*%
X35560000Y-33020000D03*
D13*
X27940000Y-30480000D03*
D14*
X27940000Y-33020000D03*
X27940000Y-35560000D03*
X35560000Y-35560000D03*
X35560000Y-30480000D03*
%TD*%
D13*
%TO.C,U2*%
X53340000Y-27940000D03*
D14*
X53340000Y-30480000D03*
X53340000Y-33020000D03*
X53340000Y-35560000D03*
X53340000Y-38100000D03*
X53340000Y-40640000D03*
X53340000Y-43180000D03*
X53340000Y-45720000D03*
X60960000Y-45720000D03*
X60960000Y-43180000D03*
X60960000Y-40640000D03*
X60960000Y-38100000D03*
X60960000Y-35560000D03*
X60960000Y-33020000D03*
X60960000Y-30480000D03*
X60960000Y-27940000D03*
%TD*%
D10*
%TO.C,D5*%
X78740000Y-55880000D03*
D11*
X81280000Y-55880000D03*
%TD*%
D10*
%TO.C,D4*%
X78740000Y-48260000D03*
D11*
X81280000Y-48260000D03*
%TD*%
D18*
%TO.C,U10*%
X33020000Y-53340000D03*
D19*
X33020000Y-55880000D03*
X33020000Y-58420000D03*
X33020000Y-63500000D03*
X33020000Y-66040000D03*
X33020000Y-68580000D03*
X33020000Y-71120000D03*
%TD*%
D15*
%TO.C,C6*%
X36830000Y-66120000D03*
X36830000Y-71120000D03*
%TD*%
D20*
%TO.C,SW2*%
X77470000Y-21590000D03*
X83970000Y-21590000D03*
X77470000Y-26090000D03*
X83970000Y-26090000D03*
%TD*%
D10*
%TO.C,D7*%
X78740000Y-66040000D03*
D11*
X81280000Y-66040000D03*
%TD*%
D15*
%TO.C,C2*%
X32940000Y-7620000D03*
X27940000Y-7620000D03*
%TD*%
D20*
%TO.C,SW1*%
X88900000Y-21590000D03*
X95400000Y-21590000D03*
X88900000Y-26090000D03*
X95400000Y-26090000D03*
%TD*%
D13*
%TO.C,U11*%
X40640000Y-5080000D03*
D14*
X40640000Y-7620000D03*
X40640000Y-10160000D03*
X40640000Y-12700000D03*
X40640000Y-15240000D03*
X40640000Y-17780000D03*
X40640000Y-20320000D03*
X48260000Y-20320000D03*
X48260000Y-17780000D03*
X48260000Y-15240000D03*
X48260000Y-12700000D03*
X48260000Y-10160000D03*
X48260000Y-7620000D03*
X48260000Y-5080000D03*
%TD*%
D13*
%TO.C,U1*%
X40640000Y-27940000D03*
D14*
X40640000Y-30480000D03*
X40640000Y-33020000D03*
X40640000Y-35560000D03*
X40640000Y-38100000D03*
X40640000Y-40640000D03*
X40640000Y-43180000D03*
X48260000Y-43180000D03*
X48260000Y-40640000D03*
X48260000Y-38100000D03*
X48260000Y-35560000D03*
X48260000Y-33020000D03*
X48260000Y-30480000D03*
X48260000Y-27940000D03*
%TD*%
D15*
%TO.C,C4*%
X27940000Y-25400000D03*
X32940000Y-25400000D03*
%TD*%
D21*
%TO.C,U3*%
X10160000Y-40640000D03*
D22*
X10160000Y-43180000D03*
X10160000Y-45720000D03*
X10160000Y-48260000D03*
X10160000Y-50800000D03*
X10160000Y-53340000D03*
X10160000Y-55880000D03*
X10160000Y-58420000D03*
X17780000Y-58420000D03*
X17780000Y-55880000D03*
X17780000Y-53340000D03*
X17780000Y-50800000D03*
X17780000Y-48260000D03*
X17780000Y-45720000D03*
X17780000Y-43180000D03*
X17780000Y-40640000D03*
%TD*%
D15*
%TO.C,R1*%
X35560000Y-40640000D03*
D14*
X27940000Y-40640000D03*
%TD*%
D15*
%TO.C,C3*%
X27940000Y-22860000D03*
X32940000Y-22860000D03*
%TD*%
%TO.C,C10*%
X54650000Y-3810000D03*
X59650000Y-3810000D03*
%TD*%
D13*
%TO.C,U13*%
X66040000Y-7620000D03*
D14*
X66040000Y-10160000D03*
X66040000Y-12700000D03*
X66040000Y-15240000D03*
X73660000Y-15240000D03*
X73660000Y-12700000D03*
X73660000Y-10160000D03*
X73660000Y-7620000D03*
%TD*%
D15*
%TO.C,R9*%
X66040000Y-20320000D03*
D14*
X73660000Y-20320000D03*
%TD*%
D10*
%TO.C,D8*%
X78740000Y-71120000D03*
D11*
X81280000Y-71120000D03*
%TD*%
D15*
%TO.C,R8*%
X53340000Y-22860000D03*
D14*
X60960000Y-22860000D03*
%TD*%
D10*
%TO.C,D2*%
X78740000Y-38100000D03*
D11*
X81280000Y-38100000D03*
%TD*%
D15*
%TO.C,C7*%
X41910000Y-48260000D03*
X46910000Y-48260000D03*
%TD*%
D13*
%TO.C,J1*%
X2540000Y-17780000D03*
D14*
X2540000Y-20320000D03*
X2540000Y-22860000D03*
X2540000Y-25400000D03*
X2540000Y-27940000D03*
X2540000Y-30480000D03*
X2540000Y-33020000D03*
X2540000Y-35560000D03*
X2540000Y-38100000D03*
X2540000Y-40640000D03*
X2540000Y-43180000D03*
X2540000Y-45720000D03*
X2540000Y-48260000D03*
X2540000Y-50800000D03*
X2540000Y-53340000D03*
X2540000Y-55880000D03*
X2540000Y-58420000D03*
X2540000Y-60960000D03*
X2540000Y-63500000D03*
X2540000Y-66040000D03*
X22860000Y-66040000D03*
X22860000Y-63500000D03*
X22860000Y-60960000D03*
X22860000Y-58420000D03*
X22860000Y-55880000D03*
X22860000Y-53340000D03*
X22860000Y-50800000D03*
X22860000Y-48260000D03*
X22860000Y-45720000D03*
X22860000Y-43180000D03*
X22860000Y-40640000D03*
X22860000Y-38100000D03*
X22860000Y-35560000D03*
X22860000Y-33020000D03*
X22860000Y-30480000D03*
X22860000Y-27940000D03*
X22860000Y-25400000D03*
X22860000Y-22860000D03*
X22860000Y-20320000D03*
X22860000Y-17780000D03*
%TD*%
D15*
%TO.C,R5*%
X90170000Y-60960000D03*
D14*
X90170000Y-53340000D03*
%TD*%
D10*
%TO.C,D6*%
X78740000Y-60960000D03*
D11*
X81280000Y-60960000D03*
%TD*%
D10*
%TO.C,D9*%
X93980000Y-53340000D03*
D11*
X96520000Y-53340000D03*
%TD*%
D10*
%TO.C,D1*%
X78740000Y-33020000D03*
D11*
X81280000Y-33020000D03*
%TD*%
D15*
%TO.C,R2*%
X35560000Y-43180000D03*
D14*
X27940000Y-43180000D03*
%TD*%
%TO.C,U8*%
X35560000Y-15240000D03*
D13*
X27940000Y-12700000D03*
D14*
X27940000Y-15240000D03*
X27940000Y-17780000D03*
X35560000Y-17780000D03*
X35560000Y-12700000D03*
%TD*%
D23*
%TO.C,J2*%
X88900000Y-33020000D03*
D24*
X88900000Y-35560000D03*
X88900000Y-38100000D03*
X88900000Y-40640000D03*
X88900000Y-43180000D03*
X88900000Y-45720000D03*
%TD*%
D15*
%TO.C,R6*%
X88900000Y-17780000D03*
D14*
X96520000Y-17780000D03*
%TD*%
D15*
%TO.C,C11*%
X67350000Y-3810000D03*
X72350000Y-3810000D03*
%TD*%
D16*
%TO.C,C12*%
X82780000Y-15240000D03*
D17*
X81280000Y-15240000D03*
%TD*%
D15*
%TO.C,C1*%
X32940000Y-5080000D03*
X27940000Y-5080000D03*
%TD*%
%TO.C,R4*%
X96520000Y-15240000D03*
D14*
X88900000Y-15240000D03*
%TD*%
M02*
